<?xml version="1.0" encoding="utf-8"?>
<!-- Generator: Adobe Illustrator 21.0.0, SVG Export Plug-In . SVG Version: 6.00 Build 0)  -->
<svg version="1.1" id="Layer_1" xmlns="http://www.w3.org/2000/svg" xmlns:xlink="http://www.w3.org/1999/xlink" x="0px" y="0px"
	 viewBox="0 0 1649 1732.3" style="enable-background:new 0 0 1649 1732.3;" xml:space="preserve">
<style type="text/css">
	.st0{fill:#565656;}
</style>
<path class="st0" d="M1243.6,925.8c7.6,7.6,8.3,20-0.7,26.2c-22.1,14.5-50.4,12.4-76.6,9.7c-44.2-4.8-96.6-6.9-119.4-48.3
	c-0.7,0-0.7-0.7-1.4-1.4c-29-15.9,20-26.9,33.8-29c31-4.1,64.2,4.1,94.5,11C1199.4,898.9,1223.6,905.8,1243.6,925.8L1243.6,925.8z
	 M1646.6,1584.1c-20.7,14.5-11.7,39.3-26.2,56.6c-14.5,16.6-49.7,16.6-68.3,16.6c-79.4,0.7-156.7-5.5-234.6,0.7
	c-20,1.4-38,4.1-56.6,9c-5.5,1.4-14.5,4.8-20.7,1.4c-15.9-8.3-30.4-34.5-51.1-26.2c-17.2,7.6-30.4,32.4-51.1,17.3
	c-38-28.3-69.7-2.8-109.7,4.8c-41.4,8.3-80.7-14.5-121.5-3.5c-30.4,9-59.4,17.9-90.4,7.6c-31-11-39.3-35.2-12.4-58
	c42.8-35.2,95.9-40.7,149.1-36.6c80.7,6.9,160.8,0.7,241.5-3.5c2.8,0,4.1,1.4,4.1,3.5c34.5,13.8,56.6-13.8,76.6-38
	c2.8-3.5,7.6-1.4,9,0.7c29,42.8,64.2-5.5,100.8-1.4c9.7,0.7,18.6,3.4,24.8,12.4c2.8,4.1,3.5,9,3.5,13.8c1.4,22.1,29.7,17.2,29-4.8
	c0-3.5,4.1-6.9,7.6-5.5c29,11.7,66.2,26.9,89.7-3.5c20-25.5,22.8-62.1,24.8-93.2c4.1-83.5-1.4-169.1-7.6-251.9
	c-4.8-80.7-13.8-162.9-4.1-243.6c9.7-80,9-158,7.6-238.8c-0.7-42.1-2.8-84.2,0-126.3c1.4-38.6,8.3-80.1,4.1-118.7
	c-4.1-34.5-24.8-64.2-29-98c-4.1-31,0-63.5,7.6-93.9c4.1-18.6,13.8-41.4,13.1-60.7c-0.7-16.6-1.4-33.8-0.7-50.4
	c0-8.3-1.4-21.4,4.8-28.3c9.7-11.7,14.5-29-8.3-31.1c-54.5-6.9-110.4-41.4-162.2-7.6c0.7,11.7,1.4,24.8-1.4,36.6l7.6,9.7
	c13.1,5.5,26.2,7.6,40.7,8.3c16.6,0,34.5-4.1,51.1-2.8c13.8,1.4,25.5,13.8,20.7,29.7c-3.4,11.7-13.8,21.4-20,31.1
	c-11,17.3-9,42.1-9,62.1c-0.7,50.4,0,100.8,1.4,149.7c1.4,41.4,5.5,83.5,8.3,124.9c0.7,0.7,3.4,1.4,3.4,3.5
	c1.4,46.9,17.3,93.2,17.9,140.1c0.7,0.7-12.4,58-12.4,58c-0.7,60.7-5.5,173.2-5.5,173.2c-0.7,103.5-18.6,206.3-0.7,309.2
	c7.6,41.4-8.3,81.4-9.7,122.8c-1.4,45.5,4.1,90.4-2.8,135.9c0.7,2.8,0,5.5-3.5,6.9c-94.5,17.9-190.5,21.4-287.1,15.9
	c-24.2-1.4-52.4-3.5-75.9,5.5c-9,4.1-21.4,9.7-32.4,9c-13.8-1.4-20.7-12.4-33.8-14.5c-16.6-3.4-32.4-6.9-48.3-8.3
	c-42.8-5.5-83.5-8.3-123.5,9c-22.1,9.7-45.5,5.5-67.6-3.5c-26.2-11-46.2-24.2-75.2-9.7c-11.7,5.5-22.1,11.7-35.2,14.5
	c-11,2.8-20.7,0-30.4-4.1c-22.1-8.3-39.3-11-62.8-6.9c2.8,3.4,0.7,9.7-4.1,9.7c-140.1-7.6-280.9,9-421,11c-6.9,1.4-11.7,9-15.9,9
	h-4.1c-3.5,0-4.1-11.7-3.5-13.8c-18.6-20.7-13.8-89-13.1-109c5.5-130.4-11-261.6-14.5-391.3c-1.4-64.9-1.4-130.4,9-194.6
	c12.4-72.5,12.4-142.9,11-215.3c-3.4-144.2,11-287.8,6.9-432c0-2.8,2.8-3.5,4.1-2.8l1.4-0.7c38.6-3.5,80.7-13.8,118.7-3.5
	c0.7,0,1.3,0.6,1.4,1.4l5.5,0.7h42.8c1.4,0,3.4,0.7,3.4,1.4c75.9,0.7,151.8-5.5,227.7-9c26.2-0.7,53.8,0,80.1-8.3
	c13.1-4.1,29-11,42.8-9.7c34.5,2.8,69.7,13.1,103.5,20.7c24.2,4.8,40.7-36.6,62.1-22.1c32.4,20.7,69.7,13.1,107,13.8
	c20,0.7,38.6-3.5,58.7-3.5c11,0,20,2.8,29.7,4.8c9.7-1.4,17.9-0.7,29,3.5l176.7-5.5c35.2,0.7,73.8,3.5,107.7-9.7
	c9-3.5,13.8-8.3,16.6-13.8c-1.4-2.8-2.8-5.5-4.1-9c-2.8-4.8-5.5-11-9-14.5c-38-12.4-81.4-9-121.5-11c-54.5-2.8-107.7,4.8-162.2,9
	c-50.4,4.1-102.8,7.6-153.2,3.5c-29.7-2.8-85.6-15.9-111.1,4.8c-2.8,1.4-4.8,1.4-7.6,0c-48.3-39.3-111.8,20-167,3.5
	c-33.1-9.7-64.2-16.6-99.4-12.4c-33.8,3.5-66.9,8.3-101.4,8.3c-75.2-0.7-149.7,4.1-225,1.4c-16.6-0.7-32.4-0.7-47.6-2.8
	c-13.1-1.4-30.4-8.3-43.5-2.8C100.1,128,96,134.9,98,141.1c5.5,4.1-13.8,30.4-13.8,43.5l-1.4,34.5c-0.7,51.1-4.1,98-15.9,147.7
	c-5.5,26.2-18.6,63.5-9,89.7c5.5,17.3,18.6,29,26.2,44.2C97.4,529,98,563.5,96.7,593.8l-8.3,296.7c-3.5,98.7-9.7,198.1-5.5,297.4
	c3.4,91.8,17.9,185.6,5.5,276.7c-4.1,30.4-40.7,84.2-5.5,105.6c20,11.7,43.5,14.5,66.2,16.6c55.9,3.4,111.8-2.8,168.4-9
	c20.7-2.8,41.4-6.9,62.1-6.9c15.9-0.7,30.4,1.4,45.5,6.9c13.1,4.8,33.1,13.8,48.3,13.8c0.7,0.7,24.8-0.7,26.2-7.6
	c20.7-9,38.6-15.9,64.9-11c25.5,4.8,48.3,8.3,75.2,3.5c13.8-2.8,34.5-4.1,48.3-0.7l5.5,4.1c5.5-2.8-3.5,6.9-9,9
	c-31,12.4-21.4,52.4-24.8,79.4c0,2.8-3.5,3.5-4.8,3.5c-12.4,0-29.7,0-36.6-13.1c-14.5-26.9-49.7-45.5-49.7,11c0,3.4-2.8,4.8-4.8,4.8
	c-2.8,0-4.8-1.4-4.8-4.8c0-3.5-36.6-22.8-40.7-24.8c-17.9-9.7-38.6-21.4-60-13.8c-13.1,4.1-24.2,11.7-36.6,17.3
	c-22.1,26.9-45.5,55.9-78,38.6c-6.9-3.5-33.8-26.9-39.3-22.1c-7.6,8.3-15.9,16.6-26.2,20.7c-29.7,11.7-60.7,9.7-92.5,9
	c-1.4,0-4.8-1.4-4.8-4.1c-1.4-12.4-8.3-37.3-25.5-22.1c-4.1,3.4-7.6,6.9-11.7,11c-4.8,4.1-11,9.7-17.3,12.4
	c-20.7,8.3-84.2-2.8-92.5-17.3c-6.9-11-9-22.1-11.7-34.5c-4.8-30.4-1.4-63.5-2.8-94.5c-2.8-78-8.3-154.6-14.5-232.6
	c-3.4-39.3-6.9-80.1-3.4-120.1c1.4-25.5,2.8-60.7,15.9-84.2c11-18.6,3.5-33.8-11-47.6c-3.5-4.1-4.8-11.7-4.8-16.6
	c-2.8-29,2.8-59.4,4.1-88.3c1.4-21.4,4.8-42.8,4.8-64.2c0-16.6-3.5-32.4-4.8-48.3C5,835.3,4.3,827,9.1,819.4
	c9.7-13.8,8.3-21.4,2.8-37.3c-11-30.4,0-66.9,1.4-98.7c2.8-37.3,4.1-73.8,0-111.8C9,530.3,0.7,490.3,3.5,448.2
	c2.8-38,4.8-72.5,6.9-109.7c3.4-67.6,3.4-136,1.4-203.6v15.9c0,0-5.5-86.3,30.4-107c55.2-30.4,122.1-25.5,182.2-28.3
	c78-3.5,156.7,4.1,234.6,4.1c45.5,0,90.4-0.7,134.6-11c30.8-6.9,62.3-9.7,93.9-8.3c38.6,2.8,75.9,12.4,113.9,15.9
	c38,3.4,75.2,1.4,113.2-0.7c82.1-5.5,164.9-3.5,247.1,0l128.4,5.5c20,0.7,42.8,5.5,62.1,0.7l36.6-12.4c26.9-7.6,45.5-0.7,71.8,5.5
	l96.6,22.8c11-2.8,21.4-3.5,29.7,4.8c17.9,16.6,0.7,37.3,13.8,55.9c15.9,22.1,30.4,36.6,33.8,64.9c3.5,30.4,4.8,63.5-4.8,93.2
	c-6.9,20-15.9,41.4-7.6,62.8c4.8,13.1,13.8,25.5,17.2,39.3c6.9,29.7,6.9,59.3,4.8,89.7c-1.4,34.5-3.5,69.7-7.6,103.5
	c-2.8,22.1-11.7,43.5-12.4,64.9c-0.7,17.9,4.8,33.1,8.3,50.4c11.7,56.6-38,92.5-46.9,144.2c-4.8,28.3,26.9,15.9,41.4,32.4
	c9,11,4.1,29,3.5,40.7c-3.5,30.4,5.5,60,4.1,90.4c-1.4,38-13.1,69-4.1,107c4.8,21.4,9,42.8,4.1,64.2c-4.8,21.4-29.7,75.2,3.5,84.9
	c1.4,0,2.8,1.4,2.8,3.5c0,9.7-1.4,16.6-5.5,25.5c-14.5,33.1,8.3,26.2,12.4,47.6c4.1,20-7.6,26.9-11,45.5c-4.8,29.7,11,52.5,9.7,81.4
	c-0.7,26.9-15.9,42.1-11,66.9c1.4,0,3.5,1.4,3.5,3.5c2.8,13.1,4.1,28.3-0.7,41.4c-6.9,18.6-14.5,24.2,6.9,35.2
	C1650.1,1577.2,1650.1,1582.1,1646.6,1584.1L1646.6,1584.1z M1285.7,668.4c-13.1-80.7-20.7-164.9-47.6-242.2
	c-11.7-32.4-17.3-67.6-55.2-73.8c-49.7-8.3-33.1,33.1-26.2,72.5c9.7,60.7,13.8,122.8,29.7,182.9c11,41.4,31.1,90.4-24.2,58.7
	c-92.5-55.9-124.2-178-161.5-269.1c-16.6-41.4-64.9-140.1-98-164.9c-15.9-11.7-93.9-29-109-18.6c-32.4,22.1,67.6,177.4,81.4,205
	c30.4,62.1,62.8,123.5,102.1,179.4c28.3,39.3,72.5,75.9,9.7,99.4c-64.9,24.8-96.6-11.7-140.8-45.5C810.9,626,766,621.8,721.9,617
	c-121.5-14.5-236.7-0.7-334,80.1C341,736,311.3,789.8,286.4,845c-6.9,13.8-46.9,135.9-41.4,136.6c-24.8-4.1-9.7-62.1-41.4-28.3
	c-28.3,29.7,8.3,115.2,20.7,144.9c28.3,66.2,58,131.1,80.1,200.1s26.9,67.6,90.4,73.1c80.7,7.6,160.1-17.3,239.5-26.9
	c0,0-140.8-87.6,137.3,8.3c62.1,21.4,127.7,15.9,192.5,17.9c46.2-11,47.6-90.4,71.8-127.7c9-13.8,53.8-84.2,67.6-89.7
	c20-7.6,48.3,13.1,68.3,15.9c115.9,17.9,151.8-77.3,133.2-170.5c-15.9-81.4-6.9-172.5,4.8-235.3
	C1314.7,740.1,1289.8,689.8,1285.7,668.4L1285.7,668.4z M767.4,1659.3c-12.4-11.7-31.1-14.5-43.5-26.9c-6.9-7.6-9-14.5-7.6-22.8
	c0,0-0.7,0-0.7-0.7c-9-16.6,11.7-30.4,26.2-24.8c7.6,3.5,18.6,8.3,20,17.3c0.7,11.7-6.9,20-9,30.4c8.3,4.8,16.6,16.6,20.7,22.1
	C776.4,1658.7,770.9,1662.8,767.4,1659.3z"/>
</svg>
