<?xml version="1.0" encoding="utf-8"?>
<!-- Generator: Adobe Illustrator 21.0.0, SVG Export Plug-In . SVG Version: 6.00 Build 0)  -->
<svg version="1.1" id="Layer_1" xmlns="http://www.w3.org/2000/svg" xmlns:xlink="http://www.w3.org/1999/xlink" x="0px" y="0px"
	 viewBox="0 0 2500 503" style="enable-background:new 0 0 2500 503;" xml:space="preserve">
<g>
	<path style="fill:#FFFFFF;" d="M1.2,1c2.1-0.4,3.7-1,5.4-1c69.2,0.3,138.3,0.2,207.5,1.1c23.6,0.3,45.2,8.6,64.6,22.4
		c44.2,31.4,48.3,121.3-12.4,153.5c-3.1,1.6-6.2,3.3-10.4,5.5c11.5,5.3,22.9,8.8,32.4,15.2c36.5,24.2,51.4,78.5,35,126.1
		c-14.3,41.6-48.1,58.7-87.5,67.9c-12.9,3-26.5,4.6-39.7,4.6c-64.6,0.5-129.3,0.2-194.9,0.2C1.2,264.9,1.2,133.1,1.2,1L1.2,1z
		 M70.3,338.6c48.1,0,94.8,1.1,141.4-0.4c29.3-0.9,50.5-32.3,48.7-62.9c-1.7-30.1-20.3-55.7-48.9-57.1c-46.2-2.2-92.5-1.5-138.8-2
		c-0.7,0-1.4,1-2.3,1.7L70.3,338.6L70.3,338.6z M70.5,164.7c43,0,84.4,1.6,125.7-0.5c30.4-1.5,47.5-25.8,46.4-59
		c-1-29.4-18.4-47.1-49.6-47.9c-39.2-1-78.4-0.6-117.7-0.6c-1.6,0-3.2,0.9-4.8,1.3V164.7z M2213.6,110.3h57.6v30.9
		c6.4-4.9,14.2-10.4,21.4-16.6c44.2-37.9,148.9-33.3,184.8,43.1c30.9,65.7,29.5,131.8-12.1,192.9c-23.1,33.9-58.8,46-99.3,43.8
		c-35.2-1.9-66.1-12.9-90.5-45.5V503h-62C2213.6,372,2213.6,241.5,2213.6,110.3L2213.6,110.3z M2272.1,255c2.6,14.4,4,29.1,8,43.1
		c9,31.2,36.3,54.3,64.5,56.3c37.8,2.7,65-11.3,78.6-44.8c17.4-42.6,16.8-85.6-8.6-125.4c-29.9-47-101.7-43-127.1,6.2
		C2277.2,210.6,2272.1,231.9,2272.1,255L2272.1,255z M2172.7,355.6c0,11.8,0.4,23.7-0.3,35.6c-0.2,2.9-3.9,7.9-6.2,8.1
		c-18,1.5-36.3,4.1-54,2.3c-15.6-1.6-24.3-14.9-29.1-30.2c-37.1,30.2-79.7,36.8-125.1,31.2c-37.9-4.7-69.3-35.8-72-70.4
		c-3.7-47.6,14.6-78.6,57.3-89.9c30-7.9,61.2-11.1,91.9-16.4c7.4-1.3,15-2.4,22.2-4.3c14-3.8,24-11.5,25-27.4
		c1.1-16.4-5.3-29.2-20.7-35.4c-26.3-10.6-53.2-10.3-79.1,1.8c-11.8,5.5-18.9,16.7-25.1,35.6h-60.8c0.1-23.2,8.1-42.6,23.5-59
		c20.3-21.7,46.8-30.2,75.4-33.1c29.9-3.1,59.6-3,88.6,6.8c39,13.2,57.7,38.9,57.6,80.1c-0.1,43.7,0,87.5,0,131.2
		C2141.9,353.1,2141.9,353.1,2172.7,355.6L2172.7,355.6z M2078.8,256.9c-19.2,3.3-36.7,5.9-54,9.5c-18.2,3.8-36.7,7.1-54.1,13.5
		c-17,6.2-22.8,22.1-22.2,39.2c0.5,16.3,11.7,25.5,26,30.5c24.6,8.6,49.3,7.5,72.8-3.4c16.8-7.9,29.6-20.7,31.1-40.4
		C2079.8,289.2,2078.8,272.7,2078.8,256.9z M515.3,102.1c95.3-1.1,151.2,68.7,145.3,163.8c-2,33.1-10.9,64-32.7,90.1
		c-23.4,28.2-53.6,43-89.8,47c-30.2,3.4-59.6,1.4-87.5-11.3c-41.7-18.9-65.5-51.9-75.5-95.9c-6.9-30.2-6.6-60.2,1.1-90
		C393.1,139.9,443.8,102.3,515.3,102.1L515.3,102.1z M432.3,253.9c2.5,14,3.8,28.3,7.7,41.8c10,34.5,37.2,57.3,68.3,58.8
		c38.5,1.9,65.4-14.3,79.7-50.2c14-35,14-70.8-1.3-105.4c-22.7-51.2-84.5-64.3-124.2-26.2C439.8,194.4,434,223.2,432.3,253.9
		L432.3,253.9z M845.9,102.1c86-0.1,144.4,57.8,145.5,143.9c0.5,36.4-5.5,71.1-26.8,101.5c-30.6,43.6-74.7,58.9-125.6,56.6
		c-18.7-0.9-38.1-5-55.6-11.9c-41-16.1-65.4-47.8-76.3-90.2c-9.5-37.2-8.5-74.2,3.7-110.6C729.4,135.7,780.4,102.2,845.9,102.1
		L845.9,102.1z M928.3,246.1c-1.4-7.6-2.8-22.4-6.9-36.4c-10.5-35.5-38.1-57-73-58.6c-32.8-1.4-62.4,17.9-75.1,51.8
		c-15,39.9-13.9,79.7,8.7,116.9c23.5,38.8,76.9,47.3,111.9,18.3C920.6,316.2,927.2,285.8,928.3,246.1L928.3,246.1z M1459.7,189.9
		c-19.6,0-38.7,0.2-57.8-0.2c-2.4,0-6-2.4-6.8-4.5c-10.7-29.8-36-33.4-62.1-33.5c-10.8-0.1-22.4,2.6-32.4,6.8
		c-21.4,9-23.8,33.2-3.7,44.9c13.9,8.1,30.3,12.4,46,16.8c22.2,6.3,45.2,10,67.3,16.7c56.5,17.1,78.6,73.7,46.9,120.4
		c-15.2,22.4-37.9,34.5-63.9,40.8c-38.5,9.3-76.7,10-114.3-3.6c-40.2-14.5-61.4-43.7-64.6-87.8h61.4c17.4,45.5,66.7,63.3,112.9,40
		c10.7-5.4,17.8-13,18.5-25.6c0.8-13.5-4.4-25-16.5-29.5c-21.5-8-44-13.5-66.1-20c-18.3-5.4-37.2-9.2-54.9-16.2
		c-34.1-13.5-48.9-36.7-48.7-72.1c0.2-30.9,18.2-57.3,50.2-68.9c44-16,89-18,133.2-0.6c29.9,11.7,47.7,34.8,55.1,65.9
		C1460.3,182.3,1459.7,185.5,1459.7,189.9z M1126.6,109.5h56.8V156h-55.6c-0.4,5.6-0.9,9.5-0.9,13.3c-0.1,46.9-0.1,93.7,0,140.6
		c0,6.2,0.5,12.5,1.1,18.7c1.2,12.4,8.1,19.8,20.6,20.4c11.4,0.6,22.9,0.1,35,0.1v46.4c-25.9,6.4-52.3,6.1-77.8,0.4
		c-29.7-6.6-41.8-27.1-42-65.8c-0.4-52.7-0.1-105.3-0.1-158v-15.5h-47.2v-47h46.5v-86h63.6C1126.6,51.9,1126.6,79.8,1126.6,109.5
		L1126.6,109.5z M1657.7,397.4c-24.4,0-47.6,0.8-70.6-0.2c-22.3-0.9-39.6-15.8-44.4-37.9c-2.8-12.6-4.3-25.5-4.4-38.4
		c-0.5-49.5-0.2-99.1-0.2-148.7v-15.7h-47v-46.3h46.3V23.9h63.8v84.9h56.5v46.7h-54.2c-0.6,4.2-1.5,7.1-1.5,10
		c0,50.4-0.2,100.9,0.1,151.3c0.2,26.7,7.2,33.1,33.6,32.9c7.1,0,14.1,0,22.1,0L1657.7,397.4z M1763.7,110.5v48.9
		c24.5-41.6,58.4-63.2,108.4-55.8v60.3c-23.8-3.6-46.7-4.2-67,10.4c-26.6,19.1-35.9,47.1-36.6,78c-1,47.7-0.3,95.4-0.3,144.2h-62.4
		V110.5C1724.7,110.5,1743.2,110.5,1763.7,110.5z"/>
</g>
</svg>
