<?xml version="1.0" encoding="utf-8"?>
<!-- Generator: Adobe Illustrator 21.0.0, SVG Export Plug-In . SVG Version: 6.00 Build 0)  -->
<svg version="1.1" id="Layer_1" xmlns="http://www.w3.org/2000/svg" xmlns:xlink="http://www.w3.org/1999/xlink" x="0px" y="0px"
	 viewBox="0 0 170.7 56.7" style="enable-background:new 0 0 170.7 56.7;" xml:space="preserve">
<polyline style="fill:#FFFFFF;" points="117.8,56.7 117.8,41.1 143.5,41.1 117.8,13.3 117.8,0 169.7,0 169.7,15.5 169.7,15.5 
	145,15.5 170.7,43.4 170.7,56.7 "/>
<polyline style="fill:#FFFFFF;" points="55.4,56.7 55.4,41.1 81.1,41.1 55.4,13.3 55.4,0 107.3,0 107.3,15.5 107.3,15.5 82.7,15.5 
	108.3,43.4 108.3,56.7 "/>
<polyline style="fill:#FFFFFF;" points="0,56.7 0,0 45.6,0 45.6,16.2 45.6,16.2 18.9,16.2 18.9,40.5 45.6,40.5 45.6,56.7 "/>
</svg>
