<?xml version="1.0" encoding="utf-8"?>
<!-- Generator: Adobe Illustrator 21.0.0, SVG Export Plug-In . SVG Version: 6.00 Build 0)  -->
<svg version="1.1" id="Layer_1" xmlns="http://www.w3.org/2000/svg" xmlns:xlink="http://www.w3.org/1999/xlink" x="0px" y="0px"
	 viewBox="0 0 778.9 131.6" style="enable-background:new 0 0 778.9 131.6;" xml:space="preserve">
<g>
	<path style="fill:#FFFFFF;" d="M56,8.1c17.1,0,33,6.1,33,10.8c0,2.9-3.7,10-5.9,10c-1.8,0-10.2-7.5-26.9-7.5
		c-30.6,0-40.5,17.7-40.5,47.9c0,26.5,7.9,48.9,38.7,48.9c9,0,17.7-1,22.2-2.2V81.1H56.4C54,81.1,53,79.4,53,76v-2.9
		c0-3.7,1-5.1,3.5-5.1h30.4c3.7,0,5.1,1.6,5.1,5.1V119c0,9.8-18.7,12.4-38.5,12.4C18.9,131.4,0,112,0,70.9C0,27.7,20,8.1,56,8.1z"/>
	<path style="fill:#FFFFFF;" d="M109.8,66.2c0-14.3-2-21-2-21.8c0-3.3,7.1-4.1,9.4-4.1c4.1,0,5.1,6.9,6.1,11.4
		c5.9-8.4,12.8-13,20-13c6.7,0,10,2.9,10,6.7c0,3.3-1.4,9.4-3.5,9.4c-2.2,0-3.7-1.8-9.6-1.8c-9,0-15.9,10.6-15.9,10.6v63.3
		c0,2.4-2,3.9-6.9,3.9h-0.6c-4.9,0-6.9-1.4-6.9-3.9L109.8,66.2L109.8,66.2z"/>
	<path style="fill:#FFFFFF;" d="M200.4,38.7c23.6,0,35.6,15.7,35.6,45c0,2-3.7,7.1-5.7,7.1h-54.6c1.4,19.1,9.6,27.9,26.7,27.9
		c15.1,0,23.4-7.3,25.3-7.3c2.4,0,6.1,6.7,6.1,8.6c0,4.1-13.6,11-31.2,11c-28.7,0-42.4-14.7-42.4-45.6
		C160.1,55,173.9,38.7,200.4,38.7z M220.6,78.6c0-18.1-6.9-27.3-20.8-27.3c-15.1,0-23,9.2-24.2,27.3H220.6z"/>
	<path style="fill:#FFFFFF;" d="M290,38.7c23.6,0,35.6,15.7,35.6,45c0,2-3.7,7.1-5.7,7.1h-54.6c1.4,19.1,9.6,27.9,26.7,27.9
		c15.1,0,23.4-7.3,25.3-7.3c2.4,0,6.1,6.7,6.1,8.6c0,4.1-13.6,11-31.2,11c-28.7,0-42.4-14.7-42.4-45.6C249.9,55,263.6,38.7,290,38.7
		z M310.4,78.6c0-18.1-6.9-27.3-20.8-27.3c-15.1,0-23,9.2-24.2,27.3H310.4z"/>
	<path style="fill:#FFFFFF;" d="M341.4,66.2c0-14.3-2-21-2-21.8c0-3.3,7.1-4.1,9.4-4.1c4.1,0,5.1,6.9,6.1,11.4
		c7.3-8.1,17.3-13,26.9-13c17.7,0,28.1,10.6,28.1,27.9v59.9c0,2.4-2,3.9-6.9,3.9h-0.6c-4.9,0-6.9-1.4-6.9-3.9V67.8
		c0-10.6-6.3-16.7-17.7-16.7c-7.7,0-16.1,4.7-21.8,12v63.3c0,2.4-2,3.9-6.9,3.9h-0.6c-4.9,0-6.9-1.4-6.9-3.9L341.4,66.2L341.4,66.2z
		"/>
	<path style="fill:#FFFFFF;" d="M440.8,101c3.1,0,11.6,7.9,25.5,7.9c7.3,0,16.3-2.2,16.3-12.6c0-20.4-49.9-12.4-49.9-53.2
		c0-25.5,20.8-35.4,40.9-35.4c18.3,0,31.2,6.3,31.2,12c0,4.7-5.3,15.1-9.6,15.1c-2.2,0-7.5-4.3-19.1-4.3c-13.4,0-16.1,6.3-16.1,10.2
		c0,19.8,49.9,11.8,49.9,52.3c0,28.7-20.2,38.3-39.1,38.3c-26.3,0-40.5-9.4-40.5-15.3C430.2,111,437.1,101,440.8,101z"/>
	<path style="fill:#FFFFFF;" d="M562,38.5c27.5,0,41.8,16.5,41.8,46.4c0,30.1-14.3,46.6-41.8,46.6s-42-16.5-42-46.6
		C520,54.8,534.5,38.5,562,38.5z M577.9,84.9c0-17.3-4.9-26.3-15.9-26.3s-16.1,9-16.1,26.3s5.1,26.5,16.1,26.5
		S577.9,102.3,577.9,84.9z"/>
	<path style="fill:#FFFFFF;" d="M659.3,38.5c12.2,0,28.7,4.1,28.7,12c0,3.3-6.3,13.2-9.2,13.2c-0.6,0-1.6-0.6-3.1-1.2
		c-3.1-1.6-7.7-3.9-15.1-3.9c-13.9,0-19.6,8.6-19.6,26.3s5.3,26.5,18.5,26.5c8.1,0,13.6-2.4,16.9-4.1c1.4-0.6,2.4-1,3.1-1
		c3.9,0,9,9.8,9,13c0,9.8-24.6,12-30.1,12c-29.5,0-43.6-15.1-43.6-46C614.9,54.8,628.4,38.5,659.3,38.5z"/>
	<path style="fill:#FFFFFF;" d="M701.1,5.5c0-3.7,3.1-5.5,10.4-5.5h4.9c7.3,0,10.4,1.8,10.4,5.5v68.4l0.6,0.2l21-31.4
		c2-2.9,5.5-3.3,10.6-3.3h6.3c6.5,0,9.8,1,9.8,2.6c0,0.8-0.6,2-1.6,3.5l-24,34.2l28.1,44.6c0.8,1.6,1.4,2.6,1.4,3.7
		c0,1.6-3.1,2.6-9.8,2.6h-7.3c-5.1,0-8.8-0.6-10.4-3.3l-24-39.7l-0.6,0.2v37.3c0,3.7-3.1,5.5-10.4,5.5h-4.9
		c-7.3,0-10.4-1.8-10.4-5.5L701.1,5.5L701.1,5.5z"/>
</g>
</svg>
