<svg version="1.1" xmlns="http://www.w3.org/2000/svg" xmlns:xlink="http://www.w3.org/1999/xlink" x="0px" y="0px"
	 viewBox="0 0 295.9 69" style="enable-background:new 0 0 295.9 69;" xml:space="preserve">
<path style="fill:#FFFFFF;" d="M0,0h23.1v22.8h21.1V0h23.1v69H44.2V45.9H23.1V69H0V0L0,0z"/>
<path style="fill:#FFFFFF;" d="M97.6,22.9H77.3V0H141v22.9h-20.3V69H97.6V22.9L97.6,22.9z"/>
<path style="fill:#FFFFFF;" d="M151.1,0h24.1L190,24.3L204.8,0h24.1v69h-23V34.8L190,59.3h-0.4l-15.9-24.5V69h-22.6V0z"/>
<path style="fill:#FFFFFF;" d="M240.3,0h23.1v46.2h32.5V69h-55.5L240.3,0L240.3,0z"/>
</svg>
