<?xml version="1.0" encoding="utf-8"?>
<!-- Generator: Adobe Illustrator 21.0.0, SVG Export Plug-In . SVG Version: 6.00 Build 0)  -->
<svg version="1.1" id="Layer_1" xmlns="http://www.w3.org/2000/svg" xmlns:xlink="http://www.w3.org/1999/xlink" x="0px" y="0px"
	 viewBox="0 0 1649 743.4" style="enable-background:new 0 0 1649 743.4;" xml:space="preserve">
<path style="fill:#FFFFFF;" d="M338.5,0c11.7,0,17,5.7,17,17v572c0,21-4,41.4-12.3,60c-8.3,18.7-19,35-33,49c-14,14-30.4,25-49,33
	c-19,8.2-39.4,12.4-60,12.3h-46.7c-21,0-41.4-4-60-12.3c-18.7-8-35-19-49-33c-14-14-25-30.4-33-49C4,630.4,0,610.4,0,589V457.9
	c0-11.7,5.3-18.7,16-22l111.4-29.3c10.7-3.3,16,0.7,16,12.3V583c0,8.3,2.7,15,8.7,20.7c5.7,5.7,12.7,8.7,20.7,8.7h10
	c8,0,15-2.7,20.7-8.7c5.7-5.7,8.7-12.7,8.7-20.7V17.3c0-11.7,5.7-17,17-17C229.5,0,338.5,0,338.5,0L338.5,0z M814.8,717.8
	c1.7,11.7-3.3,17-14.7,17H688.8c-10.7,0-16.7-5.7-18.3-17l-10-119.7h-76l-10,119.7c-1.7,11.7-8,17-18.3,17H444.6
	c-11.7,0-16.3-5.7-14.7-17L522,17.3c1.7-11.7,8-17,19.7-17h161.8c11.7,0,18,5.7,19.7,17L814.8,717.8L814.8,717.8z M650.7,460.6
	l-23-270.8h-10l-23,270.8H650.7z M1096.3,0c21,0,41,4,60,12.3c18.7,8.3,35,19,49,33c14,14,25,30.4,33,49c8.2,19,12.4,39.4,12.3,60
	v426.3c0,21-4,41.4-12.3,60c-8.3,18.7-19,35-33,49c-14,14-30.4,25-49,33c-18.7,8.3-38.7,12.3-60,12.3H912.9c-11.7,0-17-5.7-17-17
	V17.3c0-11.7,5.7-17,17-17L1096.3,0L1096.3,0z M1107.7,160.4c0-8-2.7-15-8.7-20.7c-5.7-5.7-12.7-8.7-20.7-8.7h-39v472.6h39
	c8,0,15-2.7,20.7-8.7c5.7-5.7,8.7-12.7,8.7-20.7V160.4L1107.7,160.4z M1649,608.7v109.1c0,11.7-5.7,17-17,17h-265.8
	c-11.7,0-17-5.7-17-17V17.3c0-11.7,5.7-17,17-17h265.5c11.7,0,17,5.7,17,17v108.7c0,11.7-5.7,17-17,17h-139.8v139.7H1613
	c11.7,0,17,5.7,17,17v109.1c0,11.7-5.7,17-17,17h-121.1v165.4h139.7C1643.3,591.4,1649,597,1649,608.7L1649,608.7z"/>
</svg>
