<?xml version="1.0" encoding="utf-8"?>
<!-- Generator: Adobe Illustrator 21.0.0, SVG Export Plug-In . SVG Version: 6.00 Build 0)  -->
<svg version="1.1" id="Layer_1" xmlns="http://www.w3.org/2000/svg" xmlns:xlink="http://www.w3.org/1999/xlink" x="0px" y="0px"
	 viewBox="0 0 382 439" style="enable-background:new 0 0 382 439;" xml:space="preserve">
<title>Page 1</title>
<g>
	<path style="fill:#FFFFFF;" d="M190.9,439L0,329.3V109.8L190.9,0.1l190.9,109.7v219.5L190.9,439z"/>
	<path style="fill:#FFFFFF;" d="M190.9,411.9l-166-95.5V125.5L191,30.1l166,95.4v190.9L190.9,411.9L190.9,411.9z"/>
	<path style="fill:#242424;" d="M172.3,260.6c-1.3,6.1-3.6,11.6-7,16.7s-8.1,9.3-14.1,12.6c-6,3.3-13.8,5-23.4,5
		c-11.9,0-21.9-3.1-29.8-9.2c-8-6.1-13.3-14-15.9-23.7l30-10.1c0.9,3.7,2.6,6.7,5.1,8.9c2.5,2.2,5.5,3.4,9,3.4c5.6,0,9.2-1.9,11-5.7
		c1.8-3.8,2.7-8.8,2.7-15v-92.4h34.2v92.2C174.2,248.7,173.6,254.5,172.3,260.6 M276.8,187.3c-2.9-3.7-6.7-6.6-11.4-8.8
		c-4.7-2.2-9.2-3.3-13.6-3.3c-2.3,0-4.5,0.2-6.9,0.6c-2.3,0.4-4.4,1.2-6.3,2.3c-1.8,1.1-3.4,2.6-4.7,4.4c-1.3,1.8-1.9,4.1-1.9,6.8
		c0,2.4,0.5,4.4,1.5,5.9c1,1.6,2.5,3,4.4,4.2s4.2,2.3,6.9,3.3c2.6,1,5.6,2,8.9,3.1c5,1.7,10,3.4,14.9,5.2c5.2,1.9,9.9,4.5,14.1,7.6
		c4.2,3.2,7.8,7.1,10.5,11.8c2.8,4.7,4.2,10.5,4.2,17.5c0,8.1-1.5,15-4.5,20.9s-7,10.7-12,14.5s-10.8,6.7-17.3,8.5
		s-13.2,2.8-20.1,2.8c-10.1,0-19.8-1.8-29.2-5.2c-9.4-3.5-17.2-8.5-23.5-14.9l22.3-22.6c3.4,4.2,8,7.8,13.6,10.6
		c5.6,2.8,11.2,4.3,16.8,4.3c2.5,0,5-0.3,7.4-0.8s4.5-1.4,6.3-2.6c1.8-1.2,3.2-2.8,4.3-4.8c1.1-2,1.6-4.4,1.6-7.1
		c0-2.6-0.7-4.9-2-6.7s-3.2-3.5-5.7-5.1c-2.5-1.5-5.5-2.9-9.1-4.2c-4.1-1.4-8.3-2.8-12.4-4.1c-4.5-1.5-8.9-3.2-13.2-5.1
		c-4.3-2-8.2-4.5-11.5-7.6c-3.4-3.1-6.1-6.9-8.2-11.3c-2.1-4.4-3.1-9.8-3.1-16.1c0-7.8,1.6-14.4,4.8-20c3.2-5.5,7.4-10.1,12.5-13.7
		c5.2-3.6,11-6.2,17.5-7.8c6.4-1.6,13.1-2.5,19.7-2.5c8,0,16.1,1.5,24.4,4.4c8.3,2.9,15.5,7.2,21.8,12.9L276.8,187.3L276.8,187.3z"
		/>
</g>
</svg>
