<svg version="1.1" id="Ebene_1" xmlns="http://www.w3.org/2000/svg" xmlns:xlink="http://www.w3.org/1999/xlink" x="0px" y="0px"
	 viewBox="0 0 233.6 175" style="enable-background:new 0 0 233.6 175;" xml:space="preserve">
<path style="fill:#FFFFFF;" d="M103,0C90.2,0.8,81.2,2.8,68.1,8c-17.5,7-32.4,15.5-44.4,25.4c-3.2,2.6-10,9.5-12.3,12.3
	c-6.9,8.7-10.6,16.5-11.4,24c-0.3,2.6,0,4.9,1.1,8c3.1,9.3,11.1,18.2,25.6,28.5c1.4,1,4.8,3.4,7.7,5.4c5.7,4,8,5.6,10,7.3
	c1.6,1.3,1.7,1.1-1.5,2.7c-8.7,4.4-17,9.8-22.9,14.7c-2.5,2.1-6.5,6.3-7.8,8.2c-4.3,6.3-5.7,14.1-3.8,20.3c1.4,4.5,4.4,8.1,7.5,9
	c3.6,1.1,9.8,1.5,13.6,0.8c7.9-1.3,14.5-4.7,20.3-10.4c5.2-5.1,8.5-10.8,10.3-17.7c2.1-8.3,1.7-17.1-1-23.7
	c-0.3-0.8-0.5-1.4-0.5-1.4c0.2-0.1,6.1-3.6,8.3-4.8c4.1-2.3,4.7-2.6,4.7-2.5c0,0.1-0.2,0.7-0.4,1.3c-1.9,6.1-3,14.9-2.4,19.7
	c1,8.3,4.7,16.1,8.4,17.9c2.3,1.1,5.7,1,7.9-0.3c1.2-0.7,2.5-2.1,3.6-3.8c1.2-1.9,4.5-8.5,6.4-13.1c0.8-2,1.6-3.6,1.6-3.7
	s0,0.4,0,0.9c-0.5,4-0.4,9.2,0.2,11.7c0.9,3.7,2.9,5.6,5.8,5.7c2.3,0,5-1.8,7.6-5.4c2.5-3.3,11.1-19.6,15.4-29.3
	c1.9-4.2,4.4-10.1,5.7-13.4c0.5-1.3,1-2.4,1-2.4c0.1-0.1,0.2,0.2,0.3,0.6c0.2,1.4,1.7,7.4,2.3,9.1c0.3,0.9,1.5,3.6,2.6,6l2,4.3
	l-0.4,0.5c-0.2,0.3-0.8,1.1-1.4,1.9c-1.3,1.8-4.3,5.5-9,11.1c-5.6,6.6-6.5,8-6.5,10c0,1.7,1.4,3.2,3.4,3.6c1.4,0.3,5.5,0.1,7.7-0.4
	c5.4-1.2,11-4,14.2-7.1c5.5-5.5,6.4-13.2,2.5-22.3l-0.3-0.6l2.2-3.2c3.5-5.2,6.4-10.3,10.8-18.6c0.6-1.1,1.1-1.8,1.1-1.6
	c0.1,0.1,0.3,1.3,0.6,2.6c1.3,5.8,2.3,8.7,4.6,13.3l1.2,2.4l-0.9,0.8c-3,2.5-6.3,6.2-8.4,9.3c-2.4,3.7-3.8,7.1-4.3,10.6
	c-0.6,4.5,1.7,7.6,5.6,7.6c1.6,0,5.7-1.4,8.9-2.9c5.1-2.5,9.5-6.6,11.4-10.5c1-2.1,1.4-3.5,1.4-6c0-2.3-0.3-4.3-1.2-7
	c-0.3-1.1-0.6-2-0.6-2c0.2-0.2,3.7-1.3,5.5-1.7c5.7-1.4,13.1-1.6,19.7-0.4c10.7,1.8,18.3,7.4,20.5,15.1c0.6,2,0.6,4.8,0,6.6
	c-0.9,2.8-2.9,5.3-6,7.4c-1.5,1-1.7,1.2-1.7,1.6c0,0.8,0.4,1,1.5,0.9c1.9-0.2,4.8-1.8,7.1-4.1c3.1-3.1,4.4-6.3,4.4-10.6
	c0-5.8-2.4-11.3-7.1-16c-7.3-7.3-18.9-10.6-31.7-8.9c-4.3,0.5-9.7,2.1-13.2,3.7c-1.2,0.6-1.7,0.7-1.8,0.5c-0.5-0.7-3.7-7.4-4.1-8.6
	c-0.5-1.6-1.2-6.1-1.2-8.2c0-2.8,0.6-5.8,2.1-10.2c0.5-1.4,0.8-2.6,0.8-2.9c0-0.7-1-1.6-2.1-2c-1.3-0.5-6.1-0.5-8.4,0
	c-1.8,0.3-3.2,0.9-3.6,1.4c-0.3,0.4-1.5,3.9-1.9,6.1c-0.6,2.9-1.5,5-4.3,10.5c-2.5,4.9-9.6,17.4-10.1,18c-0.2,0.2-2.2-4-2.8-5.6
	c-0.2-0.6-0.5-1.8-0.6-2.7c-1-6.2-0.7-9,1.5-15.7l1-3.1l-0.3-0.6c-0.8-1.3-2.9-1.9-6.5-1.7c-2.6,0.1-4,0.3-5.7,0.9
	c-1.8,0.6-1.8,0.6-2.7,4c-0.4,1.6-0.9,3.4-1.1,3.9c-0.6,1.8-5.2,12.2-12.7,29c-3.8,8.4-8.3,17.7-9.1,18.5c-0.4,0.5-0.5,0.5-0.7,0.2
	c-0.1-0.2-0.1-1.5-0.1-3.2c0.1-2.3,0.2-3.4,0.7-5.6c0.7-3.3,2.3-9.8,4-16c1.5-5.6,1.6-5.8,1.3-6.7c-0.3-1.3-2-2.5-3.8-2.7
	c-1.3-0.1-2,0.1-3.1,0.8c-0.5,0.4-0.9,0.5-0.8,0.4c0.3-0.7,0.5-4.2,0.4-6c-0.3-6.2-3.1-9-8.2-8.7c-3.7,0.2-8.4,2.5-12.9,6.2
	c-1.8,1.5-5.1,5-6.3,6.5c-0.6,0.8-1.2,1.4-1.9,1.8c-0.6,0.3-5.8,3.2-11.6,6.4l-10.6,5.8l-2.2-2.2c-3.3-3.3-5.7-5.3-12.7-10.6
	c-7.1-5.4-11.5-9.2-14-12c-4-4.4-6.1-7.9-7.2-12.1c-0.4-1.6-0.5-2.1-0.5-5.2c0-2.8,0.1-3.7,0.4-5.2c1.1-4.9,3.5-9.7,7.5-14.7
	c1.7-2.1,7-7.4,9.6-9.5c7.8-6.3,16.5-11.8,27.7-17.4c13-6.5,24.3-10.2,36.5-11.8c4.1-0.5,13.2-0.6,16.5-0.1
	c7.2,1.1,12.3,3.2,15.4,6.6c1.2,1.3,2,2.6,2.6,4.6c0.6,1.9,0.7,5.8,0.2,8.2c-1.3,6.2-4.8,12.3-10.4,18.2c-8.3,8.6-19.6,15-32.3,18.2
	c-12.4,3.2-22,2.9-29.3-0.7c-2.1-1-3.6-2.1-5.2-3.8c-1.6-1.6-2-1.8-2.7-1.1c-0.6,0.5-0.6,1.1,0,2.7c0.6,1.7,1.5,3.1,3.1,4.8
	c1.8,1.9,4,3.5,6.5,4.7c3.2,1.6,5.8,2.4,10.5,3.1c2.2,0.3,11.2,0.3,14.1,0c8.4-0.9,17.5-3.3,24.8-6.4c17.5-7.5,31.5-24.4,33.6-40.5
	c0.5-4,0.3-8.1-0.6-11.7C143.4,10,131.2,2.2,113.5,0.4C110.8,0.1,105-0.1,103,0z M98.3,98.8c0.4,0.3,0.5,0.5,0.5,1.4
	c0,2-1.1,6.3-3.2,12.7c-1.3,3.9-6,16.1-7.6,19.8c-2,4.7-4,7.6-5.2,7.6c-1.7,0-2.9-3.8-2.9-9.7c0-6.6,1.3-12.4,4.4-18.5
	c1.4-2.9,3.2-5.9,4.6-7.8C91.9,100.1,96.5,97.4,98.3,98.8z M173.5,118.7c0.2,1.1,0.3,2,0.2,3.3c-0.3,5-2.7,8.5-7.6,10.9
	c-1.7,0.8-1.7,0.8-2,0.5c-1-1.3,2.2-8.7,5.4-12.5c1-1.2,3.4-3.7,3.5-3.7C173.2,117.2,173.4,117.9,173.5,118.7z M50.9,127.6
	c0.6,2.8,0.8,4.1,0.7,7.2c0,4.9-0.8,8.2-2.9,12.5c-3.6,7.3-10.4,13.3-17.4,15.4c-1.9,0.6-5.3,0.8-6.6,0.5c-2.9-0.8-4.2-3.7-3.5-7.8
	c1.3-8,6.8-14.5,19.7-23.1c3.1-2.1,9.1-5.8,9.4-5.8C50.6,126.3,50.8,126.9,50.9,127.6z M142.2,129.2c-0.5,3.6-2.9,7.1-6.9,10.1
	c-2.2,1.6-3.8,2.4-4.4,2c-0.2-0.1,0.1-0.6,1.3-1.8c4.2-4.7,5.3-6,7.3-8.5c1.2-1.5,2.3-2.9,2.4-3.1
	C142.3,127.3,142.4,127.9,142.2,129.2z"/>
</svg>
