<?xml version="1.0" encoding="utf-8"?>
<!-- Generator: Adobe Illustrator 21.0.0, SVG Export Plug-In . SVG Version: 6.00 Build 0)  -->
<svg version="1.1" id="Layer_1" xmlns="http://www.w3.org/2000/svg" xmlns:xlink="http://www.w3.org/1999/xlink" x="0px" y="0px"
	 viewBox="0 0 290 309" style="enable-background:new 0 0 290 309;" xml:space="preserve">
<g id="v_x5F_2">
	<path style="fill:none;stroke:#121010;stroke-width:4;stroke-miterlimit:10;" d="M262.6,137.7l13.6-12.7c0,0,0.7-80.3,0.7-109
		c0-11.3-13.3-17.3-21.7-11.2c-15.1,11-61.9,42.2-61.9,42.2l-49.5-19.3L93.4,46.3c0,0-41.6-28.4-63.5-42.6C21.5-1.8,10.2,6,10,18
		c-0.6,28,0,106,0,106l15.3,14.1"/>
	<path style="fill:none;stroke:#121010;stroke-width:4;stroke-miterlimit:10;" d="M25.3,138.1L2,164v46c0,0,55.3-6.7,77.3,54
		c4.4,12.1,7.7,41.9,32.7,42.3c23.3,0.4,22.9-17,32.4-16.7c8.4,0.3,6.2,16.7,31.5,16.7c23,0,27.3-29.2,32.2-41.7
		c23.2-59,78.8-55.7,78.8-55.7v-45l-24.3-26.3"/>
</g>
</svg>
