<?xml version="1.0" encoding="utf-8"?>
<!-- Generator: Adobe Illustrator 15.0.0, SVG Export Plug-In . SVG Version: 6.00 Build 0)  -->
<!DOCTYPE svg PUBLIC "-//W3C//DTD SVG 1.1//EN" "http://www.w3.org/Graphics/SVG/1.1/DTD/svg11.dtd">
<svg version="1.1" id="Layer_1" xmlns="http://www.w3.org/2000/svg" xmlns:xlink="http://www.w3.org/1999/xlink" x="0px" y="0px"
	 width="800px" height="600px" viewBox="0 0 800 600" enable-background="new 0 0 800 600" xml:space="preserve">
<g id="XMLID_2_">
	<g>
		<path fill="#FFFFFF" d="M833,18.99c0,201.01,0,402,0,603.01c-283.1,0-566.21,0-849.31,0c0-199.31,0-398.61,0-597.91
			c-0.15-2.42-0.28-4.81,1.7-5.1C267.93,18.99,550.46,18.99,833,18.99z M765.05,511.59c12.12-22.5,13.03-77.359,8.5-112.109
			c-5.55-42.58-36.88-63.351-83.229-66.25c17.51-24.95,78.319-51.78,81.529-90.021c2.131-25.42-15.159-38-35.67-37.37
			c-22.97,0.7-39.66,21.79-66.25,27.18c-72.689,14.72-99.75-52.51-135.89-84.94c-34.82-31.24-84.38-65.57-149.48-57.75
			c-92.57,11.13-149.4,59.97-193.64,122.3c-24.16,34.04-47.05,67.09-35.67,120.601c-8.49,0-16.99,0-25.48,0
			C92.62,408.2,49.37,477.05,12.57,552.36c67.44,0,137.4,0,207.23,0c77.24,0,167.16,3.87,229.311-5.101
			c1.47,5.9,6.14,4.431,10.189,5.101c22.061,3.64,74.92,4.189,98.521,0c5.399-0.96,9.81-3.96,13.59-5.101
			C643.87,550.78,735.26,566.94,765.05,511.59z"/>
		<path d="M773.55,399.48c4.53,34.75,3.62,89.609-8.5,112.109c-29.79,55.351-121.18,39.19-193.64,35.67
			c-3.78,1.141-8.19,4.141-13.59,5.101c-23.601,4.189-76.46,3.64-98.521,0c-4.05-0.67-8.72,0.8-10.189-5.101
			c-62.15,8.971-152.07,5.101-229.311,5.101c-69.83,0-139.79,0-207.23,0c36.8-75.311,80.05-144.16,117.2-219.13
			c8.49,0,16.99,0,25.48,0c-11.38-53.51,11.51-86.561,35.67-120.601c44.24-62.33,101.07-111.17,193.64-122.3
			c65.1-7.82,114.66,26.51,149.48,57.75c36.14,32.43,63.2,99.66,135.89,84.94c26.59-5.39,43.28-26.48,66.25-27.18
			c20.511-0.63,37.801,11.95,35.67,37.37c-3.21,38.24-64.02,65.07-81.529,90.021C736.67,336.13,768,356.9,773.55,399.48z
			 M751.47,509.89c15.65-23.54,18.41-96.83,3.391-127.39c-16.66-33.9-64.771-40.38-118.9-33.98
			c29.76-17.359,60.25-32.88,86.63-57.75c12.71-11.98,62.41-63.36,20.38-69.64c-20.189-3.03-43.56,23.98-74.739,27.17
			c-75.69,7.76-94.811-41.24-132.49-79.83c-40.521-41.51-83.971-70.06-161.37-62.85c-50.69,4.72-92.06,30.32-122.3,59.45
			c-32.03,30.85-61.42,62.63-78.13,105.32c-11.55,29.47-5.74,62.16,11.37,76.43c-14.56,0-29.1,0-43.65,0
			C107.12,410.8,71.96,474.16,38.05,538.77c126.46-6.689,267.87,8.94,390.681,0c13.59-0.989,26.09-3.899,37.369-10.189
			c3.721,1.939-1.68,13,6.79,10.189c26.61,0,53.23,0,79.841,0c4.899-0.76-1.511-12.84,3.39-13.59c11.36,7.7,26.45,12.19,42.47,13.59
			C652.55,543.47,727.55,545.85,751.47,509.89z"/>
		<path fill="#FFFFFF" d="M754.86,382.5c15.02,30.56,12.26,103.85-3.391,127.39c-23.92,35.96-98.92,33.58-152.88,28.88
			c-16.02-1.399-31.109-5.89-42.47-13.59c-4.9,0.75,1.51,12.83-3.39,13.59c-26.61,0-53.23,0-79.841,0
			c-8.47,2.811-3.069-8.25-6.79-10.189c-11.279,6.29-23.779,9.2-37.369,10.189c-122.811,8.94-264.221-6.689-390.681,0
			C71.96,474.16,107.12,410.8,141.66,346.82c14.55,0,29.09,0,43.65,0c0.71,0.6,1.45,1.17,2.21,1.699
			c-0.09-1.029-0.25-2.01-1.69-1.699c-0.17,0-0.35,0-0.52,0c-17.11-14.271-22.92-46.96-11.37-76.43
			c16.71-42.69,46.1-74.47,78.13-105.32c30.24-29.13,71.61-54.73,122.3-59.45c77.399-7.21,120.85,21.34,161.37,62.85
			c37.68,38.59,56.8,87.59,132.49,79.83c31.18-3.19,54.55-30.2,74.739-27.17c42.03,6.28-7.67,57.66-20.38,69.64
			c-26.38,24.87-56.87,40.39-86.63,57.75C690.09,342.12,738.2,348.6,754.86,382.5z M734.48,498c11.92-19.39,12.89-92.7-1.7-112.11
			c-17.79-23.659-89.431-22.949-137.59-16.979c-18.561,2.3-31.54,4.14-40.761,16.979c-13.97,19.44-15.319,93.181,0,113.811
			C575.99,528.73,715.46,528.94,734.48,498z M720.89,261.89c3.87-4.15,10.9-10.23,10.19-16.98c-23.76,21.65-85.14,31.53-122.3,16.98
			C533.32,232.34,519.64,135.42,418.54,126c-106.01-9.87-166.64,56.59-207.24,120.6c-5.38,8.49-31.2,47.65-20.38,73.05
			c10.39,24.369,57.82,19.18,90.03,13.58c53.82-9.351,90.62-20.25,132.49-37.371c4.489-1.83,18.76-6.75,6.8-5.09
			c-40.32,5.6-81.07,21.24-118.91,23.78c-17.5,1.17-14.39,3.88-42.46,0c-59.02-8.149-34.43-68.09-11.89-96.82
			c14.11-18,32.31-34.82,50.95-44.17c37.71-18.89,77.4-4.58,105.32,18.69c30.09,25.08,51.84,65.9,81.53,95.12
			c23.47,23.09,54.029,47.82,83.229,50.96C631.78,345.19,691.8,293.08,720.89,261.89z M534.04,518.38c0-50.39,0-100.78,0-151.17
			c-14.15,0-28.31,0-42.46,0c-7.88,43.64-1.17,101.88-3.4,151.17C503.47,518.38,518.75,518.38,534.04,518.38z M469.5,346.82
			c19.25-1.12,43.02,2.26,59.45-1.7c-27.55-12.08-44.88-34.39-67.95-50.95c-37.39,27.15-93.1,35.99-140.98,52.65
			c51.29,1.359,110.47-5.15,147.78,10.199C468.77,354.03,465.74,347.04,469.5,346.82z M459.3,509.89
			c28.86-18.949,23.24-120.899-5.09-135.89c-21.27-11.25-54.7-6.79-81.54-6.79c-31.62,0-57.88,0-88.32,0c0,31.71,0,63.41,0,95.12
			c15.28,0,30.57,0,45.86,0c0-19.25,0-38.5,0-57.75c31.98,3.12,77.84-7.63,96.82,8.49c3.77,17.66,8.46,50.22-1.7,61.149
			c-20.93,22.53-119.94-3.04-149.48,6.79c-20.93-37.95-41.6-76.17-62.85-113.8c-19.25,0-38.5,0-57.75,0
			c-28.64,48.93-56.49,98.65-81.53,151.17c49.26-1.13,103.04,2.271,149.47-1.689c-9.35-12.73-15.41-28.75-23.78-42.471
			c-17.08-1.029-38.37,2.13-52.65-1.7c12.3-23.359,23.27-48.069,37.37-69.64c22.2,37.811,39.28,80.75,64.54,115.5
			c56.33-4.189,126.24,5.561,180.061,0C437.98,517.43,452.02,514.67,459.3,509.89z M350.59,458.93c19.82,0,39.64,0,59.45,0
			c-0.91-10.97,1.97-25.75-1.7-33.97c-19.25,0-38.5,0-57.75,0C350.59,436.28,350.59,447.61,350.59,458.93z M435.52,265.29
			c-20.229-28.01-45.529-73.03-88.33-79.84c-59.47-9.45-99.86,58.08-105.31,98.52c6.45,8.74,19.57,9.41,30.58,10.2
			C328.45,298.18,388.94,274.96,435.52,265.29z M263.96,413.07c0-18.69,0-37.37,0-56.051c-11.63-0.869-18.5,3.011-30.57,1.69
			C242.29,378.12,252.02,396.7,263.96,413.07z"/>
		<path d="M732.78,385.89c14.59,19.41,13.62,92.721,1.7,112.11c-19.021,30.94-158.49,30.73-180.051,1.7
			c-15.319-20.63-13.97-94.37,0-113.811c9.221-12.84,22.2-14.68,40.761-16.979C643.35,362.94,714.99,362.23,732.78,385.89z
			 M690.32,475.92c10.439-10.229,8.37-54.979,0-64.55c-10.41-11.89-87.57-15.811-96.83,6.8c-6.681,16.33-1.26,32.44,3.399,56.05
			C613.76,480.16,675.38,490.56,690.32,475.92z"/>
		<path d="M731.08,244.91c0.71,6.75-6.32,12.83-10.19,16.98c-29.09,31.19-89.109,83.3-152.88,76.44
			c-29.2-3.14-59.76-27.87-83.229-50.96c-29.69-29.22-51.44-70.04-81.53-95.12c-27.92-23.27-67.61-37.58-105.32-18.69
			c-18.64,9.35-36.84,26.17-50.95,44.17c-22.54,28.73-47.13,88.67,11.89,96.82c28.07,3.88,24.96,1.17,42.46,0
			c37.84-2.54,78.59-18.18,118.91-23.78c11.96-1.66-2.311,3.26-6.8,5.09c-41.871,17.121-78.67,28.02-132.49,37.371
			c-32.21,5.6-79.64,10.789-90.03-13.58c-10.82-25.4,15-64.561,20.38-73.05c40.6-64.01,101.23-130.47,207.24-120.6
			c101.1,9.42,114.78,106.34,190.24,135.89C645.94,276.44,707.32,266.56,731.08,244.91z"/>
		<path fill="#FFFFFF" d="M690.32,411.37c8.37,9.57,10.439,54.32,0,64.55c-14.94,14.64-76.561,4.24-93.431-1.7
			c-4.659-23.609-10.08-39.72-3.399-56.05C602.75,395.56,679.91,399.48,690.32,411.37z M613.88,460.63c20.38,0,40.76,0,61.15,0
			c-0.94-11.52,1.989-26.91-1.7-35.67c-19.82,0-39.63,0-59.45,0C611.74,438.19,614.29,445.67,613.88,460.63z"/>
		<path d="M675.03,460.63c-20.391,0-40.771,0-61.15,0c0.41-14.96-2.14-22.439,0-35.67c19.82,0,39.63,0,59.45,0
			C677.02,433.72,674.09,449.11,675.03,460.63z"/>
		<path d="M534.04,367.21c0,50.39,0,100.78,0,151.17c-15.29,0-30.57,0-45.86,0c2.23-49.29-4.479-107.53,3.4-151.17
			C505.73,367.21,519.89,367.21,534.04,367.21z"/>
		<path d="M528.95,345.12c-16.431,3.96-40.2,0.58-59.45,1.7c-3.76,0.22-0.73,7.21-1.7,10.199c-37.31-15.35-96.49-8.84-147.78-10.199
			c47.88-16.66,103.59-25.5,140.98-52.65C484.07,310.73,501.4,333.04,528.95,345.12z"/>
		<path d="M454.21,374c28.33,14.99,33.95,116.94,5.09,135.89c-7.28,4.78-21.319,7.54-30.569,8.49
			c-53.82,5.561-123.73-4.189-180.061,0c-25.26-34.75-42.34-77.689-64.54-115.5c-14.1,21.57-25.07,46.28-37.37,69.64
			c14.28,3.83,35.57,0.671,52.65,1.7c8.37,13.721,14.43,29.74,23.78,42.471c-46.43,3.96-100.21,0.56-149.47,1.689
			c25.04-52.52,52.89-102.24,81.53-151.17c19.25,0,38.5,0,57.75,0c21.25,37.63,41.92,75.85,62.85,113.8
			c29.54-9.83,128.55,15.74,149.48-6.79c10.16-10.93,5.47-43.489,1.7-61.149c-18.98-16.12-64.84-5.37-96.82-8.49
			c0,19.25,0,38.5,0,57.75c-15.29,0-30.58,0-45.86,0c0-31.71,0-63.41,0-95.12c30.44,0,56.7,0,88.32,0
			C399.51,367.21,432.94,362.75,454.21,374z"/>
		<path d="M410.04,458.93c-19.81,0-39.63,0-59.45,0c0-11.319,0-22.649,0-33.97c19.25,0,38.5,0,57.75,0
			C412.01,433.18,409.13,447.96,410.04,458.93z"/>
		<path d="M347.19,185.45c42.8,6.81,68.1,51.83,88.33,79.84c-46.58,9.67-107.069,32.89-163.06,28.88
			c-11.01-0.79-24.13-1.46-30.58-10.2C247.33,243.53,287.72,176,347.19,185.45z"/>
		<path d="M263.96,357.02c0,18.681,0,37.36,0,56.051c-11.94-16.37-21.67-34.95-30.57-54.36
			C245.46,360.03,252.33,356.15,263.96,357.02z"/>
		<path d="M185.83,346.82c1.44-0.311,1.6,0.67,1.69,1.699c-0.76-0.529-1.5-1.1-2.21-1.699
			C185.48,346.82,185.66,346.82,185.83,346.82z"/>
	</g>
	<g>
	</g>
</g>
</svg>
