<svg xmlns="http://www.w3.org/2000/svg" viewBox="0 0 383.8 48.2"><path fill="#FFF" d="M115.8 33.4h-.4s0-.1-.1-.3L104.4 3.5c-.8-2.1-2.8-3.5-5-3.5h-3.8L83.4 33.1c-.1.2-.1.2-.1.3h-.4c-1.1 0-2.1.9-2.1 2.1v5.2H85c3.2 0 4.6-1 5.7-4l2.5-6.9h12.2l2.5 6.9c1.1 3 2.4 4 5.6 4h4.3v-5.1c.2-1.3-.8-2.2-2-2.2zm-12.6-10.8h-7.6l3.5-9.8.3-.9.3.9 3.5 9.8zM136.9 10.1c-3.5 0-5.9 1.2-7.5 2.4V4.8c0-2.6-2.1-4.8-4.8-4.8h-1.1c-2.9 0-5.3 2.4-5.3 5.3V7h2.3c.6 0 1.1.5 1.1 1.1v28.7c0 2.1 1.7 3.7 3.7 3.7h3.9v-1.8c1.6 1.3 3.9 2.5 7.3 2.5 8.1 0 13.7-6.4 13.7-15.6-.1-9.2-5.4-15.5-13.3-15.5zm-1.1 7.2c3.9 0 6.4 3.4 6.4 8.4s-2.6 8.4-6.6 8.4c-4.4 0-6.4-4.3-6.4-8.4.1-5.2 2.5-8.4 6.6-8.4zM165.2 22.1c-2.6-1-5-1.9-5-3.3 0-1.7 2.4-1.9 3.8-1.9s2.8.6 2.8 1v2c0 .4.3.7.7.7h2.7c2.1 0 3.9-1.7 3.9-3.9 0-5.2-6.4-6.6-10.2-6.6-7 0-11.4 3.4-11.4 9 0 5.9 5.5 8.1 9.9 9.9 2.5 1 5 2 5 3.2 0 2.1-2.9 2.2-3.4 2.2-4.3 0-7.2-3.5-7.2-3.6l-1-1.3-2.7 3.5c-1 1.3-.9 3 .1 4.2.5.7 3.4 4.1 10.7 4.1 6.7 0 11.3-3.8 11.3-9.3-.1-6.1-5.6-8.2-10-9.9zM193.1 10.1c-9.1 0-16 6.7-16 15.5 0 8.9 6.9 15.6 16 15.6 9 0 16-6.9 16-15.6 0-8.8-6.9-15.5-16-15.5zm8 15.5c0 4.8-3.5 8.5-8.1 8.5s-8-3.7-8-8.5 3.4-8.4 8-8.4c4.7.1 8.1 3.7 8.1 8.4zM221.8 33.5h-1.3V4.8c0-2.6-2.1-4.8-4.8-4.8h-1.1c-2.9 0-5.3 2.4-5.3 5.3V7h2.3c.6 0 1.1.5 1.1 1.1v27.7c0 2.6 2.1 4.8 4.8 4.8h6.5v-5c-.1-1.1-1-2.1-2.2-2.1zM250.3 10.8h-.1c-3 0-4.4.9-5.4 3.6l-5.6 15.1-5.7-15.1c-1-2.7-2.4-3.6-5.4-3.6h-.3c-2.1 0-3.7 1.7-3.7 3.7v3.4h2.1l.1.2 8.7 22.5h7.8l8.6-22.5c.1-.2.1-.3.6-.3h1.8v-3.4c.2-2-1.4-3.6-3.5-3.6zM269.4 10.1c-8.8 0-15 6.4-15 15.6 0 9 6.6 15.6 15.8 15.6 6.4 0 9.8-3.1 10.4-3.7.6-.5 1.3-2 .3-3.6l-2.3-3.7-1.2 1.1s-3 2.8-7.1 2.8c-3.1 0-7-1.7-7.9-6.5H282l.1-1.2s.2-1.5.2-2.3c.2-8.4-5.1-14.1-12.9-14.1zm-6.3 11.1c1-2.8 3.3-4.3 6.3-4.3 2.6 0 4.4 1.6 4.9 4.3h-11.2zM314.6 33.5h-1.3V21.9c0-7.7-3.7-11.8-10.7-11.8-4.5 0-7.4 2-9.1 3.7-.3-1.3-1.4-3-4.6-3h-1c-3 0-5.3 2.4-5.3 5.3v1.7h3.4v22.8h7.8v-14c0-1.4.1-2.4.4-3.3 1-3.5 3.8-5.7 7.4-5.7 2.5 0 3.8.9 3.8 5.5v12.8c0 2.6 2.1 4.8 4.8 4.8h6.5v-5c0-1.2-.9-2.2-2.1-2.2zM335.2 37.9V37s-.1-3-3.3-3.5c-2.4-.3-3.7-1.9-3.7-4.8V17.6h6.5v-2c0-2.7-2.2-4.8-4.8-4.8h-1.7V3.3h-2.4c-2.9 0-5.3 2.4-5.3 5.3v2.1h-3.7v3.1c0 2 1.6 3.6 3.6 3.7v11.8c0 10.4 8.2 11.5 11.7 11.5 1.2 0 1.9-.1 2-.1l1.1-.2v-2.4-.2zM339.6 40.1h6.9V33h-3.7c-1.8 0-3.2 1.4-3.2 3.2v3.9z"/><g fill="#FFF"><path d="M362.9 17.7c-2.7 0-4.6.9-5.7 1.9-.5-.7-1.4-1.4-3.2-1.4h-1.1c-2.1 0-3.7 1.7-3.7 3.7V24h2.4v24.1h2.6c2.1 0 3.7-1.7 3.7-3.7v-4.9c1.1.7 2.6 1.3 4.7 1.3 6 0 10.2-4.8 10.2-11.6s-4-11.5-9.9-11.5zm3.5 11.7c0 3.4-1.7 5.7-4.4 5.7-2.8 0-4.2-2.9-4.2-5.7 0-3.7 1.6-5.7 4.4-5.7 2.5 0 4.2 2.2 4.2 5.7zM381.6 34.8h-.3V14.6c0-2.1-1.7-3.8-3.8-3.8h-1.3c-2.1 0-3.7 1.7-3.7 3.7v2.1h2.4v20.2c0 2.1 1.7 3.8 3.8 3.8h5v-3.7c.1-1.2-.9-2.1-2.1-2.1z"/></g><g fill="#FFF"><path d="M1.3 17.7c.2.3.4.4.7.4h.2c.1 0 .1 0 .2-.1.2-.1.3-.2.4-.4.1-.2 0-.4 0-.6l-.6-1.5-.6-1.5c0-.2-.2-.3-.3-.4-.2-.1-.4-.1-.6-.1-.2.1-.4.2-.5.4-.1.2-.1.4 0 .6.2.5.3 1.1.6 1.6 0 .7.3 1.2.5 1.6M5.2 23c.1.1.2.1.3.2.1 0 .2.1.4.1.1 0 .2 0 .2-.1.1-.1.2-.1.2-.2.2-.2.3-.3.3-.6 0-.2-.1-.4-.3-.6-.4-.3-.7-.7-1-1.1-.3-.4-.7-.8-1-1.2-.1-.2-.3-.2-.5-.3-.2 0-.4 0-.6.1-.2.1-.3.3-.3.5s0 .4.1.6c.4.4.8.9 1.2 1.3.3.5.6.9 1 1.3M10.5 27c.1 0 .1.1.2.1h.2c.1 0 .3 0 .4-.1.1-.1.2-.2.2-.3.1-.2.1-.4.1-.6-.1-.2-.2-.4-.4-.5-.4-.2-.9-.5-1.3-.8-.4-.3-.9-.6-1.3-1-.2-.1-.4-.2-.6-.1-.2 0-.4.1-.5.3-.1.2-.1.5-.1.7 0 .2.1.4.3.5.4.3.9.7 1.3.9.5.4 1 .6 1.5.9M25.4 28.6c0 .2.1.3.3.4.2.1.3.2.6.2h.1c1.1-.2 2.2-.5 3.1-.9.2-.1.3-.2.4-.4.1-.2.1-.4 0-.6-.1-.2-.2-.3-.4-.4-.2-.1-.4-.1-.6 0-.9.4-1.9.7-3 .9-.2 0-.3.1-.4.3-.1.1-.2.3-.1.5M16.7 29.1c0 .1 0 .1.1.1h.1c.2 0 .3-.1.4-.2.1-.1.2-.3.2-.4.1-.2.1-.5 0-.6-.1-.2-.3-.3-.4-.4-.5-.1-1-.2-1.5-.4-.5-.1-1-.2-1.5-.4-.2-.1-.4-.1-.6 0-.2.1-.3.2-.4.4-.1.2-.1.5 0 .6.1.2.3.3.5.4l1.5.6c.5.2 1 .3 1.6.3zM19.8 29.6h3.3c.2 0 .4-.1.6-.3.1-.2.2-.3.2-.5s-.1-.4-.3-.6c-.2-.1-.4-.2-.6-.2-.3 0-.6.1-.8.1h-2.1c-.2 0-.4.1-.6.2-.1.1-.2.3-.3.5 0 .2.1.4.2.6 0 .2.2.2.4.2"/></g><path fill-rule="evenodd" clip-rule="evenodd" fill="#FFF" d="M35.3 26.8l4 13.3L76.7.5M33 22.9l-1.7 3.7h.1L76.7.5 23.9 14"/><g><path fill-rule="evenodd" clip-rule="evenodd" fill="#FFF" d="M31.3 26.6l1.7-3.7L76.7.5"/></g></svg>