<?xml version="1.0" encoding="utf-8"?>
<!-- Generator: Adobe Illustrator 18.1.1, SVG Export Plug-In . SVG Version: 6.00 Build 0)  -->
<!DOCTYPE svg PUBLIC "-//W3C//DTD SVG 1.1//EN" "http://www.w3.org/Graphics/SVG/1.1/DTD/svg11.dtd">
<svg version="1.1" id="Warstwa_1" xmlns="http://www.w3.org/2000/svg" xmlns:xlink="http://www.w3.org/1999/xlink" x="0px" y="0px"
	 viewBox="0 0 85.4 41.5" enable-background="new 0 0 85.4 41.5" xml:space="preserve">
<g>
	<polygon fill-rule="evenodd" clip-rule="evenodd" fill="#FFFFFF" points="10.5,21.8 18.9,8.9 4.1,34.4 14.1,33.7 3.7,35.1 0,41.5 
		15.5,33.5 25.7,32.6 33.2,22.5 31.3,26 37.1,27.3 33.7,21.9 25.2,20.9 27.5,28.3 19.6,7.7 0.7,0 	"/>
	<path fill="#FFFFFF" d="M39.6,27.7c0.4-0.1,0.7-0.2,1-0.3c0.3-0.1,0.6-0.1,0.9-0.2c0.2,0,0.5-0.1,0.6-0.1c0.2,0,0.3,0,0.3,0
		c0.2,0,0.3,0.1,0.3,0.4v7.2c0,0.2-0.1,0.3-0.3,0.3c-0.1,0-0.2,0-0.4,0.1c-0.1,0-0.3,0-0.4,0c-0.1,0-0.2,0-0.3,0c-0.1,0-0.2,0-0.2,0
		c-0.2,0-0.3-0.1-0.3-0.3v-5.7c0-0.4-0.1-0.6-0.2-0.8c-0.1-0.1-0.3-0.2-0.6-0.2c-0.1,0-0.2,0-0.2,0c-0.1,0-0.2,0-0.3,0L39.6,27.7z
		 M42.8,23.8c0,0.4-0.1,0.7-0.3,0.8c-0.2,0.2-0.5,0.3-0.9,0.3c-0.3,0-0.6-0.1-0.7-0.3c-0.2-0.2-0.3-0.5-0.3-0.8
		c0-0.4,0.1-0.6,0.3-0.8c0.2-0.2,0.5-0.2,0.9-0.2c0.3,0,0.6,0.1,0.7,0.3C42.7,23.2,42.8,23.5,42.8,23.8z"/>
	<path fill="#FFFFFF" d="M49.2,21.4c0.8-0.2,1.4-0.4,1.9-0.4c0.5-0.1,0.8-0.1,0.9-0.1c0.2,0,0.3,0.1,0.3,0.4v12.3c0,0.2,0,0.5,0,0.7
		c0,0.2,0.1,0.4,0.1,0.6l0,0.1c0,0.1-0.1,0.2-0.2,0.2c-0.1,0-0.2,0-0.3,0.1c-0.1,0-0.2,0-0.4,0c-0.1,0-0.2,0-0.4,0
		c-0.1,0-0.2,0-0.3,0c-0.1,0-0.1,0-0.2-0.1c0,0-0.1-0.1-0.1-0.2l-0.2-0.6c-0.3,0.1-0.7,0.2-1,0.4c-0.3,0.1-0.6,0.2-0.9,0.3
		c-0.3,0.1-0.5,0.1-0.8,0.2c-0.2,0-0.4,0.1-0.6,0.1c-0.5,0-0.9-0.1-1.2-0.3c-0.4-0.2-0.7-0.5-0.9-0.9c-0.3-0.4-0.5-0.8-0.6-1.2
		c-0.1-0.4-0.2-0.9-0.2-1.3c0-0.7,0.1-1.3,0.4-1.9c0.3-0.5,0.6-1,1.1-1.4c0.4-0.4,1-0.7,1.6-0.9c0.6-0.2,1.2-0.3,1.9-0.3
		c0.4,0,0.8,0,1.2,0.1v-4.3c0-0.4-0.1-0.6-0.2-0.8c-0.1-0.1-0.3-0.2-0.6-0.2c-0.1,0-0.3,0-0.4,0L49.2,21.4z M50.4,29.1
		c0-0.2-0.1-0.4-0.2-0.6c-0.1-0.2-0.3-0.3-0.4-0.4c-0.2-0.1-0.4-0.2-0.6-0.2c-0.2,0-0.4-0.1-0.6-0.1c-0.5,0-0.8,0.1-1.2,0.2
		c-0.3,0.1-0.6,0.3-0.8,0.6c-0.2,0.2-0.4,0.5-0.4,0.9c-0.1,0.3-0.1,0.7-0.1,1.1c0,0.3,0,0.7,0.1,1.1c0.1,0.4,0.2,0.7,0.4,1.1
		c0.2,0.3,0.4,0.6,0.7,0.8c0.3,0.2,0.7,0.3,1.1,0.3c0.1,0,0.2,0,0.3,0c0.1,0,0.3,0,0.5-0.1c0.2,0,0.4-0.1,0.6-0.2
		c0.2-0.1,0.5-0.2,0.7-0.3V29.1z"/>
	<path fill="#FFFFFF" d="M61.2,34c-0.3,0.2-0.7,0.3-1.1,0.4c-0.4,0.1-0.7,0.3-1.1,0.4c-0.4,0.1-0.7,0.2-1,0.2
		c-0.3,0.1-0.6,0.1-0.8,0.1c-0.6,0-1.1-0.1-1.5-0.3c-0.4-0.2-0.8-0.5-1.1-0.8c-0.3-0.4-0.5-0.8-0.7-1.2c-0.2-0.5-0.2-0.9-0.2-1.4
		c0-0.6,0.1-1.2,0.4-1.8c0.2-0.5,0.6-1,1-1.4c0.4-0.4,0.9-0.7,1.4-0.9c0.5-0.2,1.1-0.3,1.7-0.3c0.4,0,0.8,0.1,1.1,0.2
		c0.3,0.1,0.6,0.3,0.8,0.5c0.2,0.2,0.4,0.5,0.5,0.8c0.1,0.3,0.2,0.6,0.2,1c0,0.3-0.1,0.7-0.2,1.2l-4.9,0.3c0,0.4,0.1,0.8,0.3,1.2
		c0.1,0.4,0.4,0.7,0.6,0.9c0.3,0.3,0.6,0.5,1,0.6c0.4,0.1,0.8,0.2,1.3,0.2c0.3,0,0.7,0,1.1-0.1c0.4-0.1,0.7-0.2,1-0.3L61.2,34z
		 M58.9,30c0-0.1,0-0.2,0-0.3c0-0.1,0-0.2,0-0.3c0-0.2,0-0.4-0.1-0.6c-0.1-0.2-0.1-0.3-0.3-0.5c-0.1-0.1-0.3-0.2-0.4-0.3
		C58,28.1,57.8,28,57.6,28c-0.3,0-0.6,0.1-0.9,0.2c-0.2,0.1-0.4,0.3-0.6,0.5c-0.2,0.2-0.3,0.4-0.4,0.7c-0.1,0.3-0.1,0.6-0.1,0.8
		L58.9,30z"/>
	<path fill="#FFFFFF" d="M62.6,27.9c0.4-0.1,0.7-0.3,1.1-0.4c0.4-0.1,0.7-0.2,1-0.3c0.3-0.1,0.6-0.1,0.8-0.2c0.3,0,0.5-0.1,0.6-0.1
		c0.5,0,0.9,0.1,1.3,0.2c0.3,0.1,0.6,0.3,0.8,0.6c0.2,0.3,0.4,0.6,0.5,1c0.1,0.4,0.1,0.9,0.1,1.4l-0.1,3.4c0,0.2,0,0.4,0,0.6
		c0,0.2,0.1,0.4,0.1,0.6c0,0,0,0,0,0.1c0,0.1-0.1,0.2-0.2,0.2c-0.1,0-0.2,0-0.3,0.1c-0.1,0-0.2,0-0.4,0c-0.1,0-0.2,0-0.4,0
		c-0.1,0-0.2,0-0.3,0c-0.1,0-0.1,0-0.2-0.1c0,0-0.1-0.1-0.1-0.2L67,34.3c-0.3,0.1-0.5,0.2-0.8,0.3c-0.3,0.1-0.5,0.2-0.8,0.3
		c-0.3,0.1-0.5,0.1-0.7,0.2c-0.2,0-0.4,0.1-0.5,0.1c-0.4,0-0.7-0.1-1-0.2c-0.3-0.1-0.5-0.3-0.7-0.5c-0.2-0.2-0.3-0.4-0.4-0.7
		C62,33.5,62,33.3,62,33c0-0.4,0.1-0.7,0.2-1c0.1-0.3,0.3-0.5,0.6-0.7c0.2-0.2,0.5-0.3,0.8-0.4c0.3-0.1,0.6-0.2,1-0.2
		c0.3-0.1,0.7-0.1,1.1-0.1c0.4,0,0.8,0,1.3-0.1l0-0.4c0-0.3,0-0.6-0.1-0.9c0-0.3-0.1-0.5-0.2-0.6c-0.1-0.2-0.3-0.3-0.5-0.4
		c-0.2-0.1-0.5-0.1-0.8-0.1c-0.4,0-0.8,0-1.2,0.1c-0.4,0.1-0.9,0.2-1.4,0.4L62.6,27.9z M66.9,31.2c-0.3,0-0.6,0-0.9,0.1
		c-0.3,0-0.5,0-0.8,0.1c-0.2,0-0.4,0.1-0.6,0.2c-0.2,0.1-0.3,0.2-0.4,0.3c-0.1,0.1-0.2,0.2-0.2,0.4c-0.1,0.1-0.1,0.3-0.1,0.5
		c0,0.1,0,0.3,0.1,0.5c0,0.2,0.1,0.3,0.2,0.4c0.1,0.1,0.3,0.2,0.5,0.3c0.2,0.1,0.4,0.1,0.7,0.1c0,0,0.1,0,0.2,0c0.1,0,0.2,0,0.3-0.1
		c0.1,0,0.3-0.1,0.5-0.1c0.2-0.1,0.3-0.1,0.5-0.2L66.9,31.2z"/>
	<path fill="#FFFFFF" d="M69.6,21.4c0.8-0.2,1.4-0.4,1.9-0.4c0.5-0.1,0.8-0.1,0.9-0.1c0.2,0,0.3,0.1,0.3,0.4v13.5
		c0,0.2-0.1,0.3-0.3,0.3c-0.1,0-0.2,0-0.4,0.1c-0.1,0-0.3,0-0.4,0c-0.1,0-0.2,0-0.3,0c-0.1,0-0.2,0-0.2,0c-0.2,0-0.3-0.1-0.3-0.3
		v-12c0-0.4-0.1-0.6-0.2-0.8c-0.1-0.1-0.3-0.2-0.6-0.2c-0.1,0-0.3,0-0.4,0L69.6,21.4z"/>
	<path fill="#FFFFFF" d="M73.9,27.7c0.4-0.1,0.7-0.2,1-0.3c0.3-0.1,0.6-0.1,0.9-0.2c0.2,0,0.4-0.1,0.6-0.1c0.2,0,0.3,0,0.3,0
		c0.2,0,0.3,0.1,0.3,0.4v7.2c0,0.2-0.1,0.3-0.3,0.3c-0.1,0-0.2,0-0.4,0.1c-0.1,0-0.3,0-0.4,0c-0.1,0-0.2,0-0.3,0c-0.1,0-0.2,0-0.2,0
		c-0.2,0-0.3-0.1-0.3-0.3v-5.7c0-0.4-0.1-0.6-0.2-0.8c-0.1-0.1-0.3-0.2-0.6-0.2c-0.1,0-0.2,0-0.2,0c-0.1,0-0.2,0-0.3,0L73.9,27.7z
		 M77.1,23.8c0,0.4-0.1,0.7-0.3,0.8c-0.2,0.2-0.5,0.3-0.9,0.3c-0.3,0-0.6-0.1-0.7-0.3c-0.2-0.2-0.3-0.5-0.3-0.8
		c0-0.4,0.1-0.6,0.3-0.8c0.2-0.2,0.5-0.2,0.9-0.2c0.3,0,0.6,0.1,0.7,0.3C77,23.2,77.1,23.5,77.1,23.8z"/>
	<path fill="#FFFFFF" d="M79,27.9c0.4-0.1,0.7-0.3,1.1-0.4c0.4-0.1,0.7-0.2,1-0.3c0.3-0.1,0.6-0.1,0.9-0.2c0.3,0,0.5-0.1,0.6-0.1
		c0.5,0,0.9,0.1,1.3,0.2c0.3,0.1,0.6,0.3,0.8,0.6c0.2,0.3,0.4,0.6,0.4,1c0.1,0.4,0.1,0.9,0.1,1.4l-0.1,3.4c0,0.2,0,0.4,0,0.6
		c0,0.2,0.1,0.4,0.1,0.6c0,0,0,0,0,0.1c0,0.1-0.1,0.2-0.2,0.2c-0.1,0-0.2,0-0.3,0.1c-0.1,0-0.2,0-0.4,0c-0.1,0-0.2,0-0.4,0
		c-0.1,0-0.2,0-0.3,0c-0.1,0-0.1,0-0.2-0.1c0,0-0.1-0.1-0.1-0.2l-0.1-0.5c-0.3,0.1-0.5,0.2-0.8,0.3c-0.3,0.1-0.5,0.2-0.8,0.3
		c-0.3,0.1-0.5,0.1-0.7,0.2c-0.2,0-0.4,0.1-0.5,0.1c-0.4,0-0.7-0.1-1-0.2c-0.3-0.1-0.5-0.3-0.7-0.5c-0.2-0.2-0.3-0.4-0.4-0.7
		c-0.1-0.2-0.1-0.5-0.1-0.7c0-0.4,0.1-0.7,0.2-1c0.1-0.3,0.3-0.5,0.6-0.7c0.2-0.2,0.5-0.3,0.8-0.4c0.3-0.1,0.6-0.2,1-0.2
		c0.4-0.1,0.7-0.1,1.1-0.1c0.4,0,0.8,0,1.3-0.1l0-0.4c0-0.3,0-0.6-0.1-0.9c0-0.3-0.1-0.5-0.2-0.6c-0.1-0.2-0.3-0.3-0.5-0.4
		c-0.2-0.1-0.5-0.1-0.8-0.1c-0.4,0-0.8,0-1.2,0.1c-0.4,0.1-0.9,0.2-1.4,0.4L79,27.9z M83.4,31.2c-0.3,0-0.6,0-0.9,0.1
		c-0.3,0-0.5,0-0.8,0.1c-0.2,0-0.4,0.1-0.6,0.2c-0.2,0.1-0.3,0.2-0.4,0.3c-0.1,0.1-0.2,0.2-0.2,0.4c-0.1,0.1-0.1,0.3-0.1,0.5
		c0,0.1,0,0.3,0.1,0.5c0,0.2,0.1,0.3,0.2,0.4c0.1,0.1,0.3,0.2,0.5,0.3c0.2,0.1,0.4,0.1,0.7,0.1c0,0,0.1,0,0.2,0c0.1,0,0.2,0,0.3-0.1
		c0.1,0,0.3-0.1,0.5-0.1c0.2-0.1,0.3-0.1,0.5-0.2L83.4,31.2z"/>
</g>
</svg>
