<?xml version="1.0" encoding="utf-8"?>
<!-- Generator: Adobe Illustrator 21.0.0, SVG Export Plug-In . SVG Version: 6.00 Build 0)  -->
<svg version="1.1" id="Layer_2" xmlns="http://www.w3.org/2000/svg" xmlns:xlink="http://www.w3.org/1999/xlink" x="0px" y="0px"
	 viewBox="0 0 1104.5 493.5" style="enable-background:new 0 0 1104.5 493.5;" xml:space="preserve">
<g style="enable-background:new    ;">
	<path style="fill:#FFFFFF;" d="M131.2,113.7c0,30.2-24.3,54.5-55.5,54.5H47v55H14.7V59.4H47h28.8
		C106.9,59.4,131.2,83.8,131.2,113.7z M99,113.7c0-13.6-10.1-24.1-23.2-24.1H47v48.4h28.8C88.9,138.1,99,127.3,99,113.7z"/>
	<path style="fill:#FFFFFF;" d="M203.8,201.5c10.8,0,20.1-5.1,24.1-11.7l29.7-0.2c-7.3,23.6-27.8,37-54.1,37
		c-38.1,0-62.7-26.9-62.7-61.8c0-34.9,25-61.8,62-61.8c34.4,0,58.3,27.4,58.3,61.8c0,4.4-0.2,8.4-1.2,12.4h-87.7
		C176.2,193.7,188.8,201.5,203.8,201.5z M230.9,153.5c-3.5-16.8-15.7-23.4-28.3-23.4c-16.1,0-26.9,8.7-30.7,23.4H230.9z"/>
	<path style="fill:#FFFFFF;" d="M384.4,148.3v74.9h-30.2v-72.5c0-13.3-8-19.7-18.5-19.7c-11.9,0-21.1,6.8-21.1,24.3v67.9h-30.2v-117
		h30.2v11.9c6.6-9.8,17.3-15.2,31.8-15.2C368.3,103,384.4,119.8,384.4,148.3z"/>
	<path style="fill:#FFFFFF;" d="M467.5,226.5c-35.6,0-61.8-26.9-61.8-61.8c0-34.9,26.2-61.8,61.8-61.8c29,0,53.1,19.2,58.5,45.9
		h-31.8c-4.2-9.8-14.3-16.1-26.7-16.1c-17.8,0-31.6,13.3-31.6,32.1c0,18.5,13.8,31.8,31.6,31.8c12.4,0,22.7-6.1,26.7-16.1H526
		C520.6,207.3,496.5,226.5,467.5,226.5z"/>
	<path style="fill:#FFFFFF;" d="M547.1,59.4h30.2v30.4h-30.2V59.4z M547.1,106.2h30.2v117h-30.2V106.2z"/>
	<path style="fill:#FFFFFF;" d="M607.7,54.8h30.2v168.5h-30.2V54.8z"/>
</g>
<g style="enable-background:new    ;">
	<path style="fill:#FFFFFF;" d="M5.8,391.9h32.3c0,15,9.4,22.2,27.6,22.2c16.4,0,24.1-7,24.1-16.4c0-11.7-13.1-16.8-28.8-22.2
		c-23.4-8.4-52.2-17.8-52.2-52.4c0-31.4,26-47.7,53.1-47.7c28.5,0,55.2,16.6,55.2,52.9H85.2c0-14.3-8.4-21.5-23.2-21.5
		c-13.3,0-21.1,6.8-21.1,16.4c0,11.9,11.2,17.3,26.4,22.9c23.6,8.4,54.5,17.1,54.5,51.7c0,31.4-25.7,48-56.2,48
		C33.5,445.7,5.8,428.8,5.8,391.9z"/>
	<path style="fill:#FFFFFF;" d="M244.3,367.5v74.9h-30.2v-72.5c0-13.3-8-19.7-18.5-19.7c-11.9,0-21.1,6.8-21.1,24.3v67.9h-30.2
		V278.6h30.2v58.7c6.6-9.8,17.3-15.2,31.8-15.2C228.1,322.1,244.3,339,244.3,367.5z"/>
	<path style="fill:#FFFFFF;" d="M366.2,368v74.4h-29.5v-10.1c-6.8,8.2-17.1,13.3-31.8,13.3c-20.8,0-39.3-12.4-39.3-37
		s18.5-36.7,39.3-36.7c14.7,0,25,4.4,31.8,10.3v-12.4c0-13.8-7-19.7-18.3-19.7c-11,0-18,5.8-18,15H271c0-27.6,21.8-43.1,47.5-43.1
		C344.4,322.1,366.2,337.6,366.2,368z M336.7,408.7c0-8.9-8.2-14.5-21.5-14.5c-13.3,0-19.4,6.1-19.4,14.5s6.1,14.5,19.4,14.5
		C328.5,423.2,336.7,417.1,336.7,408.7z"/>
	<path style="fill:#FFFFFF;" d="M455.8,323.1v33.7c-15.7-1.9-32.1,5.1-32.1,27.8v57.8h-30.2v-117h30.2V343
		C429.6,329.1,441.6,323.1,455.8,323.1z"/>
	<path style="fill:#FFFFFF;" d="M600.4,383.9c0,34.9-25.7,61.8-57.1,61.8c-17.1,0-29.5-6.3-37.9-16.8v60.4h-30.2V325.4h30.2V339
		c8.4-10.5,20.8-16.8,37.9-16.8C574.7,322.1,600.4,349,600.4,383.9z M570.2,383.9c0-19.7-13.8-33-32.5-33
		c-17.8,0-31.4,12.4-32.3,30.9v4.2c0.9,18.5,14.5,30.9,32.3,30.9C556.4,416.9,570.2,403.6,570.2,383.9z"/>
	<path style="fill:#FFFFFF;" d="M681.4,420.6c10.8,0,20.1-5.1,24.1-11.7l29.7-0.2c-7.3,23.6-27.8,37-54.1,37
		c-38.1,0-62.7-26.9-62.7-61.8c0-34.9,25-61.8,62-61.8c34.4,0,58.3,27.4,58.3,61.8c0,4.4-0.2,8.4-1.2,12.4h-87.7
		C653.8,412.9,666.4,420.6,681.4,420.6z M708.5,372.7c-3.5-16.8-15.7-23.4-28.3-23.4c-16.1,0-26.9,8.7-30.7,23.4H708.5z"/>
	<path style="fill:#FFFFFF;" d="M862,367.5v74.9h-30.2v-72.5c0-13.3-8-19.7-18.5-19.7c-11.9,0-21.1,6.8-21.1,24.3v67.9h-30.2v-117
		h30.2v11.9c6.6-9.8,17.3-15.2,31.8-15.2C845.9,322.1,862,339,862,367.5z"/>
	<path style="fill:#FFFFFF;" d="M946.3,420.6c10.8,0,20.1-5.1,24.1-11.7l29.7-0.2c-7.3,23.6-27.8,37-54.1,37
		c-38.1,0-62.7-26.9-62.7-61.8c0-34.9,25-61.8,62-61.8c34.4,0,58.3,27.4,58.3,61.8c0,4.4-0.2,8.4-1.2,12.4h-87.7
		C918.7,412.9,931.3,420.6,946.3,420.6z M973.4,372.7c-3.5-16.8-15.7-23.4-28.3-23.4c-16.1,0-26.9,8.7-30.7,23.4H973.4z"/>
	<path style="fill:#FFFFFF;" d="M1089.3,323.1v33.7c-15.7-1.9-32.1,5.1-32.1,27.8v57.8H1027v-117h30.2V343
		C1063,329.1,1075,323.1,1089.3,323.1z"/>
</g>
</svg>
