<?xml version="1.0" encoding="utf-8"?>
<svg version="1.1" id="Layer_1" xmlns="http://www.w3.org/2000/svg" xmlns:xlink="http://www.w3.org/1999/xlink" x="0px" y="0px"
	 viewBox="0 0 146 42.7" style="enable-background:new 0 0 146 42.7;" xml:space="preserve">
<path style="fill-rule:evenodd;clip-rule:evenodd;fill:#FFFFFF;" d="M118.3,40.6c0,1-0.8,1.7-1.7,1.7c-1,0-1.7-0.8-1.7-1.7v-1.2
	c-0.4,0.4-0.8,0.7-1.2,1c-2.1,1.5-4.9,2.5-8,2.5c-3.1,0-5.9-0.9-8-2.5c-2.2-1.7-3.6-4-3.6-6.6c0-2.6,1.4-5,3.6-6.6
	c2.1-1.5,4.9-2.5,8-2.5c3.1,0,5.9,0.9,8,2.5c0.4,0.3,0.8,0.7,1.2,1v-3.6c0-1.2-0.2-2.3-0.6-3.2c-0.6-1.3-1.5-2.2-2.8-2.9
	c-1.3-0.7-3-1-4.9-1c-2.7,0-5.8,0.7-9,2.1c-0.9,0.4-1.9,0-2.3-0.9c-0.4-0.9,0-1.9,0.9-2.3c3.6-1.6,7.2-2.4,10.4-2.4
	c2.4,0,4.7,0.5,6.5,1.4c1.9,1,3.4,2.5,4.3,4.6c0.6,1.3,0.9,2.9,0.9,4.6V40.6L118.3,40.6z M112.4,30c-1.6-1.1-3.9-1.8-6.4-1.8
	c-2.5,0-4.8,0.7-6.4,1.8c-1.4,1-2.3,2.3-2.3,3.8c0,1.4,0.9,2.8,2.3,3.8c1.6,1.1,3.9,1.8,6.4,1.8c2.5,0,4.8-0.7,6.4-1.8
	c1.4-1,2.3-2.3,2.3-3.8C114.8,32.3,113.9,31,112.4,30z"/>
<path style="fill-rule:evenodd;clip-rule:evenodd;fill:#FFFFFF;" d="M142.2,0.4L142.2,0.4c0.9,0,1.6,0.7,1.6,1.6v38.7
	c0,0.9-0.7,1.6-1.6,1.6l0,0c-0.9,0-1.6-0.7-1.6-1.6V2C140.6,1.1,141.3,0.4,142.2,0.4z"/>
<path style="fill-rule:evenodd;clip-rule:evenodd;fill:#FFFFFF;" d="M128.2,15c0.9,0,1.6,0.7,1.6,1.6v24.1c0,0.9-0.7,1.6-1.6,1.6
	c-0.9,0-1.6-0.7-1.6-1.6V16.6C126.5,15.7,127.3,15,128.2,15z"/>
<path style="fill-rule:evenodd;clip-rule:evenodd;fill:#FFFFFF;" d="M46.7,15c0.9,0,1.6,0.7,1.6,1.6V19c1.9-3.1,5.5-4.7,9.1-4.8
	c4.1,0,8.3,1.3,10,5.4c1.6-3.8,6.3-5.4,10.3-5.4c6.3-0.1,11.4,3.5,11.4,10.1v16.4c0,0.9-0.7,1.6-1.6,1.6c-0.9,0-1.6-0.7-1.6-1.6
	V25.4c0-4.3-3.6-7.7-7.8-7.7c-4.5,0-9.3,2.9-9.3,7.8v15.2c0,0.9-0.7,1.6-1.6,1.6c-0.9,0-1.6-0.7-1.6-1.6V25.7c0-4.4-3.3-7.9-7.8-7.9
	c-4.4,0-9,2.6-9.5,7.9v15.2c0,0.9-0.7,1.6-1.6,1.6c-0.9,0-1.6-0.7-1.6-1.6V16.6C45,15.7,45.8,15,46.7,15z"/>
<g>
	<path style="fill-rule:evenodd;clip-rule:evenodd;fill:#FFFFFF;" d="M36.2,20.4L36.2,20.4L36.2,20.4L36.2,20.4c0.1,0,0.1,0,0.1,0h0
		l0,0h0c0.8,0.1,1.4,0.7,1.5,1.5v0l0,0v0l0,0v0l0,0v0l0,0v11.6c0,0.4-0.2,0.9-0.5,1.2c-2,2.5-4.5,4.4-7.3,5.8
		c-2.8,1.3-5.9,2.1-9,2.1c-5.8,0-11.1-2.4-14.9-6.3C2.4,32.6,0,27.2,0,21.4c0-5.9,2.4-11.2,6.2-15.1C10,2.4,15.3,0,21.1,0
		c2.5,0,5.1,0.5,7.4,1.4c2.3,0.9,4.5,2.2,6.5,3.9c0.7,0.6,0.8,1.7,0.1,2.5c-0.6,0.7-1.7,0.8-2.5,0.2c-1.6-1.4-3.4-2.5-5.4-3.3
		c-2-0.7-4-1.1-6.2-1.1c-4.9,0-9.2,2-12.4,5.2c-3.2,3.2-5.2,7.7-5.2,12.7c0,4.9,2,9.4,5.2,12.7c3.2,3.2,7.6,5.2,12.4,5.2
		c2.6,0,5.2-0.6,7.5-1.7c2.2-1.1,4.1-2.6,5.8-4.5c0.2-0.2,0.2-0.2,0.2-0.5v-8.8H22.6c-0.9,0-1.6-0.7-1.6-1.6c0-0.9,0.7-1.6,1.6-1.6
		H36.2L36.2,20.4z M36.3,20.4L36.3,20.4C36.3,20.4,36.3,20.4,36.3,20.4z"/>
</g>
<circle style="fill-rule:evenodd;clip-rule:evenodd;fill:#FFFFFF;" cx="128.2" cy="5.1" r="2.1"/>
</svg>
