<?xml version="1.0" encoding="utf-8"?>
<!-- Generator: Adobe Illustrator 21.0.0, SVG Export Plug-In . SVG Version: 6.00 Build 0)  -->
<svg version="1.1" id="Layer_1" xmlns="http://www.w3.org/2000/svg" xmlns:xlink="http://www.w3.org/1999/xlink" x="0px" y="0px"
	 viewBox="0 0 354.9 50.8" style="enable-background:new 0 0 354.9 50.8;" xml:space="preserve">
<path style="fill:#FFFFFF;" d="M43.5,31H11.6v19.8H0V0h43.5c7.8,0,11.4,2.7,11.4,9.8v11.3C54.9,28.2,51.3,31,43.5,31 M43.5,12.8
	c0-3.3-1.7-4-5.3-4H11.6v13.5h26.6c3.6,0,5.3-0.7,5.3-4V12.8z"/>
<polyline style="fill:#FFFFFF;" points="119.8,50.8 119.8,28.9 82.9,28.9 82.9,50.8 71.1,50.8 71.1,0 82.9,0 82.9,19.7 119.8,19.7 
	119.8,0 131.7,0 131.7,50.8 119.8,50.8 "/>
<path style="fill:#FFFFFF;" d="M198,50.8h-37.4c-9.5,0-12.6-2.5-12.6-12V12c0-9.6,3-12,12.6-12H198c9.6,0,12.6,2.5,12.6,12v26.8
	C210.6,48.3,207.5,50.8,198,50.8 M198.8,9h-39v32.2h39V9z"/>
<path style="fill:#FFFFFF;" d="M278.6,50.8l-37.3-31.4c-1.5-1.3-2.8-2.6-4.2-4.1c0.4,3.9,0.5,6.6,0.5,8.1v27.5h-10.6V0h8.1
	l35.7,29.9c2.1,1.7,4,3.4,5.8,5.5c-0.3-4.2-0.5-7.2-0.5-8.8V0h10.6v50.8H278.6"/>
<polyline style="fill:#FFFFFF;" points="302.9,50.8 302.9,0 354.9,0 354.9,8.7 314.7,8.7 314.7,20 338.2,20 338.2,28.6 314.7,28.6 
	314.7,41.2 355.4,41.2 355.4,50.8 302.9,50.8 "/>
</svg>
